<?xml version="1.0" standalone="no"?>
<!DOCTYPE svg PUBLIC "-//W3C//DTD SVG 20010904//EN"
 "http://www.w3.org/TR/2001/REC-SVG-20010904/DTD/svg10.dtd">
<svg version="1.0" xmlns="http://www.w3.org/2000/svg"
 width="738.000000pt" height="738.000000pt" viewBox="0 0 738.000000 738.000000"
 preserveAspectRatio="xMidYMid meet">
<metadata>
Created by potrace 1.11, written by Peter Selinger 2001-2013
</metadata>
<g transform="translate(0.000000,738.000000) scale(0.100000,-0.100000)"
fill="#000000" stroke="none">
<path d="M3240 6010 c-37 -6 -39 -7 -14 -8 l32 -2 6 -82 c3 -46 9 -181 12
-300 l7 -218 -32 0 c-17 0 -31 -5 -31 -11 0 -8 15 -10 46 -5 26 3 58 6 72 6
22 0 24 3 20 32 -5 30 -4 31 11 12 64 -78 160 -70 236 18 72 84 63 200 -20
275 -27 25 -60 45 -82 49 -47 9 -107 -11 -132 -43 -18 -22 -21 -23 -22 -7 -1
11 -4 80 -8 154 l-6 135 -25 1 c-14 1 -45 -2 -70 -6z m289 -272 c27 -29 36
-74 36 -185 0 -77 -3 -96 -21 -120 -47 -62 -140 -49 -170 24 -21 50 -29 168
-15 220 15 55 51 83 107 83 32 0 49 -6 63 -22z"/>
<path d="M2162 5778 c-78 -28 -141 -53 -138 -55 2 -2 23 1 45 8 25 7 45 9 50
3 10 -10 181 -523 181 -541 0 -7 -18 -18 -40 -24 -22 -7 -40 -16 -40 -20 0 -4
53 10 118 32 148 50 146 49 140 54 -3 3 -24 -1 -47 -10 -32 -11 -43 -12 -46
-2 -37 98 -83 252 -77 257 4 4 26 12 49 18 55 16 132 69 160 111 33 49 32 119
-3 161 -67 79 -147 80 -352 8z m223 10 c58 -45 86 -174 49 -227 -18 -26 -87
-60 -121 -61 -19 0 -27 16 -64 128 -23 70 -44 132 -46 138 -5 15 70 42 118 43
23 1 46 -7 64 -21z"/>
<path d="M3818 5752 c-57 -35 -73 -126 -30 -165 10 -9 44 -28 77 -43 76 -34
95 -51 95 -83 0 -47 -26 -71 -75 -71 -55 0 -100 35 -117 92 -10 33 -13 37 -19
22 -4 -11 -8 -40 -8 -66 -1 -39 2 -46 15 -41 8 3 41 -2 73 -12 46 -14 64 -15
98 -6 57 16 93 60 93 115 0 54 -20 73 -122 120 -100 46 -119 76 -73 121 48 49
133 21 151 -49 10 -40 24 -31 24 17 0 42 -1 43 -45 55 -62 16 -105 15 -137 -6z"/>
<path d="M5088 5741 c-52 -17 -87 -52 -119 -117 -21 -46 -35 -64 -45 -60 -8 3
-21 9 -29 12 -8 3 -15 2 -15 -4 0 -5 11 -13 25 -16 14 -4 25 -12 25 -19 0 -24
-117 -312 -126 -311 -5 1 -20 5 -34 9 -16 5 -22 4 -15 -3 15 -15 195 -82 195
-72 0 4 -13 13 -30 19 -16 5 -30 14 -30 18 -1 23 115 313 125 313 7 0 29 -7
50 -16 20 -8 40 -13 43 -10 4 5 -27 21 -80 39 -15 5 -14 13 11 79 36 94 67
128 114 128 45 0 71 -24 57 -50 -6 -10 -15 -22 -20 -25 -16 -10 -12 -42 6 -49
32 -12 55 -6 64 19 28 75 -77 146 -172 116z"/>
<path d="M2980 5727 c-52 -11 -53 -12 -19 -15 l35 -3 18 -115 c16 -97 17 -121
6 -160 -26 -93 -118 -126 -154 -55 -7 14 -24 92 -36 174 -19 124 -26 147 -39
143 -9 -3 -40 -8 -68 -11 -29 -4 -53 -11 -53 -15 0 -5 15 -6 33 -3 l33 5 18
-124 c23 -157 41 -202 90 -218 56 -18 115 -4 154 37 17 19 32 42 32 51 0 15 2
15 10 2 5 -8 10 -25 10 -38 0 -22 3 -22 53 -16 72 10 104 23 56 23 l-36 1 -28
175 c-23 145 -30 175 -44 174 -9 -1 -41 -6 -71 -12z"/>
<path d="M4515 5671 c-130 -32 -197 -155 -146 -266 50 -109 163 -154 266 -106
74 34 115 95 115 172 0 124 -121 227 -235 200z m134 -45 c22 -23 26 -34 25
-84 -2 -129 -65 -252 -128 -252 -38 0 -93 25 -105 48 -35 66 11 263 71 307 34
24 103 14 137 -19z"/>
<path d="M3504 4800 c-5 -5 -26 -11 -47 -12 -36 -3 -42 -10 -39 -48 5 -67 -1
-196 -9 -205 -6 -5 -99 -13 -179 -16 -36 -1 -57 -3 -47 -6 9 -2 17 -9 17 -14
0 -12 62 -12 94 1 14 5 27 6 30 2 3 -5 24 -8 48 -9 25 0 31 1 16 4 -38 6 -35
23 3 23 30 0 31 -2 26 -32 l-5 -33 44 0 c24 0 44 3 44 8 0 4 -15 7 -34 7 l-34
0 1 50 0 50 68 0 c44 0 69 -4 73 -12 2 -7 3 34 0 92 -2 57 -9 109 -14 114 -6
6 -10 18 -10 28 0 19 -29 25 -46 8z m19 -27 c-7 -2 -19 -2 -25 0 -7 3 -2 5 12
5 14 0 19 -2 13 -5z m22 -23 c4 -6 -13 -9 -45 -8 -67 3 -76 18 -11 18 27 0 53
-5 56 -10z m16 -53 c6 -23 4 -30 -14 -37 -16 -6 -17 -9 -6 -9 16 -1 29 -20 29
-42 0 -6 -29 -9 -67 -7 -40 2 -67 7 -64 13 1 6 8 9 15 7 6 -1 4 3 -4 10 -19
16 -15 45 8 51 12 3 10 5 -6 6 -31 1 -18 21 16 22 24 1 23 3 -8 9 -28 6 -22 8
29 6 62 -1 65 -2 72 -29z m-14 -113 c-3 -3 -12 -4 -19 -1 -8 3 -5 6 6 6 11 1
17 -2 13 -5z m-284 -81 c-7 -2 -21 -2 -30 0 -10 3 -4 5 12 5 17 0 24 -2 18 -5z"/>
<path d="M3498 4683 c7 -3 16 -2 19 1 4 3 -2 6 -13 5 -11 0 -14 -3 -6 -6z"/>
<path d="M3475 4630 c-3 -5 1 -10 10 -10 9 0 13 5 10 10 -3 6 -8 10 -10 10 -2
0 -7 -4 -10 -10z"/>
<path d="M2597 4683 c-25 -13 -27 -18 -22 -63 4 -40 2 -49 -13 -53 -9 -3 11
-5 46 -6 50 -1 64 -5 69 -18 12 -31 31 -44 55 -38 14 4 31 -1 43 -10 20 -16
20 -16 -4 -9 -16 4 -21 3 -17 -5 5 -7 42 -11 99 -10 61 1 84 4 67 9 -24 8 -24
8 7 9 17 1 34 -5 37 -11 5 -10 7 -10 12 0 3 6 13 12 22 13 10 1 7 4 -8 9 -24
8 -23 8 8 9 20 1 31 -3 27 -9 -4 -6 23 -10 74 -10 45 0 81 -4 81 -9 0 -5 10
-12 23 -16 19 -7 16 -9 -18 -14 l-40 -6 55 -8 c86 -11 120 -9 120 7 0 10 13
16 38 19 20 2 -4 4 -55 5 -66 2 -96 6 -107 17 -8 8 -28 15 -45 15 -17 0 -31 5
-31 10 0 6 -57 10 -152 10 -103 0 -148 -4 -138 -10 12 -8 11 -10 -8 -10 -12 0
-25 6 -28 14 -4 10 -17 13 -42 10 -43 -5 -53 1 -71 41 -8 17 -16 24 -18 18 -3
-7 -17 -13 -31 -12 l-27 1 25 8 c25 8 25 8 -5 10 l-30 2 28 11 c42 17 34 33
-15 28 -10 -1 -18 3 -18 8 0 6 16 11 35 11 19 0 35 -4 35 -10 0 -5 5 -10 10
-10 14 0 8 20 -14 47 -22 26 -21 26 -59 6z m326 -180 c-7 -2 -21 -2 -30 0 -10
3 -4 5 12 5 17 0 24 -2 18 -5z m-53 -13 c11 -7 4 -10 -25 -9 -31 0 -36 2 -20
9 26 11 28 11 45 0z m427 -41 c-12 -7 -27 -7 -45 0 -25 9 -24 9 18 10 36 0 41
-2 27 -10z"/>
<path d="M2550 4527 c0 -27 -25 -65 -36 -55 -4 4 -2 14 5 21 18 22 -121 23
-143 1 -9 -8 -16 -11 -16 -5 0 6 -18 11 -42 10 -24 -1 -35 -3 -25 -6 9 -2 17
-9 17 -14 0 -5 -8 -9 -17 -9 -10 -1 -29 -7 -43 -15 l-25 -14 30 -1 29 0 -22
-16 c-13 -9 -29 -13 -37 -10 -8 3 -15 1 -15 -5 0 -7 13 -9 30 -7 17 3 33 1 36
-4 3 -4 -2 -8 -10 -8 -16 0 -21 -12 -9 -23 3 -4 12 -2 20 4 10 9 13 7 13 -7 1
-18 1 -18 12 1 22 39 54 48 45 13 -6 -22 -6 -22 9 -3 8 11 12 25 10 32 -3 8 2
13 14 13 16 0 19 -6 16 -31 -2 -17 -9 -36 -16 -42 -10 -9 -11 -7 -6 13 l7 25
-15 -25 c-18 -29 -20 -44 -6 -35 13 8 13 3 0 -30 -7 -20 -16 -26 -29 -22 -15
3 -17 0 -13 -17 3 -11 7 -15 10 -8 2 6 9 12 16 12 7 0 22 21 34 48 21 46 54
92 66 92 4 0 -5 -17 -19 -38 -14 -22 -23 -45 -20 -54 3 -8 -3 -34 -14 -59 -11
-24 -20 -37 -20 -29 0 8 6 26 14 40 8 14 14 32 14 40 0 8 -7 2 -16 -15 -9 -16
-22 -34 -31 -39 -10 -6 -11 -10 -3 -15 7 -5 5 -14 -8 -28 -11 -11 -18 -23 -16
-25 8 -8 -33 -102 -46 -107 -12 -3 -12 -2 -1 11 9 11 10 18 2 23 -5 3 -15 -6
-21 -22 -6 -15 -15 -38 -20 -50 -5 -14 -5 -23 1 -23 5 0 12 9 15 20 3 11 10
20 15 20 11 0 3 -26 -16 -54 -11 -16 -10 -24 2 -49 17 -32 13 -63 -14 -114
-28 -55 -31 -37 -5 28 13 33 21 64 17 67 -4 4 -9 1 -11 -6 -3 -6 -10 -9 -15
-6 -7 4 -8 2 -4 -5 4 -7 -2 -32 -13 -56 -12 -25 -21 -50 -21 -56 0 -6 -7 -8
-16 -5 -9 3 -19 6 -22 6 -4 0 3 7 15 15 12 9 20 22 17 30 -3 8 1 27 10 42 22
40 47 105 42 110 -2 3 -9 -5 -16 -16 -6 -12 -15 -19 -20 -16 -5 3 -11 1 -15
-4 -3 -6 -12 -8 -20 -4 -8 3 -15 0 -15 -6 0 -6 11 -11 25 -11 25 0 35 -23 16
-35 -5 -3 -15 -22 -22 -43 -11 -36 -24 -52 -43 -52 -5 0 -2 8 5 17 8 9 9 14 2
10 -6 -4 -14 -1 -16 5 -4 8 -6 7 -7 -4 -2 -10 -4 -22 -5 -28 -1 -5 -3 -17 -4
-25 -1 -12 -5 -13 -20 -5 -11 5 -30 10 -43 10 -18 0 -20 -2 -8 -10 13 -9 13
-10 0 -10 -11 0 -10 -3 4 -12 10 -6 64 -12 120 -14 56 -2 108 -4 116 -5 49 -6
78 2 85 24 4 12 6 26 5 31 0 6 1 20 5 33 5 20 8 21 25 11 10 -7 23 -8 27 -4 4
5 2 11 -4 13 -7 3 -13 16 -13 29 0 14 -5 35 -11 46 -11 21 -11 21 16 0 16 -12
30 -20 33 -17 3 2 -5 13 -17 23 -19 15 -22 23 -16 56 5 25 15 40 29 46 21 9
21 9 -1 9 -14 1 -23 7 -23 16 0 11 12 15 45 16 102 3 111 2 121 -19 7 -14 16
-16 44 -11 l35 6 -32 2 c-35 1 -44 15 -17 25 26 10 152 7 159 -4 3 -5 1 -10
-4 -10 -6 0 -11 -5 -11 -10 0 -6 7 -10 16 -8 10 2 19 -3 21 -9 3 -7 0 -13 -6
-13 -6 0 -11 -19 -11 -44 0 -26 -5 -46 -12 -49 -10 -4 -10 -6 0 -6 21 -2 13
-19 -10 -24 -20 -4 -19 -4 5 -6 25 -1 27 2 27 37 0 83 1 83 109 80 l96 -3 3
-39 c3 -36 23 -65 45 -66 17 0 5 18 -15 25 -20 7 -18 9 17 15 40 7 40 9 -2 14
-30 3 -39 14 -25 28 8 8 15 8 26 -1 9 -7 21 -11 28 -8 8 4 7 6 -4 6 -10 1 -18
6 -18 11 0 6 -9 10 -20 10 -11 0 -20 5 -20 10 0 6 -26 10 -59 10 -36 0 -63 5
-67 12 -4 6 -2 14 4 16 13 4 6 22 -9 22 -5 0 -9 -11 -9 -25 0 -14 -4 -25 -10
-25 -13 0 -13 16 0 41 9 15 22 19 65 19 45 0 55 -3 60 -20 4 -11 11 -17 17
-14 6 4 14 0 19 -7 7 -12 9 -11 9 2 0 8 -4 19 -10 25 -6 6 17 9 63 9 84 0 487
12 729 21 149 6 168 5 174 -9 5 -15 8 -15 21 -2 15 15 54 21 52 8 -4 -23 2
-43 11 -38 6 4 9 14 8 23 -3 15 20 18 222 24 129 5 310 3 424 -3 109 -5 201
-7 204 -4 3 3 -17 6 -44 6 l-49 1 54 10 c37 7 60 7 75 -1 11 -6 50 -12 86 -13
l65 -3 0 -67 c0 -48 4 -68 13 -68 26 0 12 -30 -15 -31 -17 -1 -21 -3 -10 -6
17 -4 19 -15 21 -113 1 -19 5 -41 9 -47 11 -18 37 -16 37 2 0 10 -6 12 -17 8
-15 -6 -16 -4 -5 9 10 12 9 21 -2 43 -8 16 -12 33 -9 39 4 5 8 22 9 36 2 41
15 61 38 59 71 -5 226 2 221 11 -3 5 -32 10 -63 10 -31 0 -70 1 -87 3 -16 2
-36 5 -43 5 -7 1 -10 7 -7 12 4 6 -6 10 -22 11 l-28 1 25 7 c31 9 52 3 43 -13
-3 -6 3 -3 15 8 14 12 31 17 52 14 16 -3 30 -1 30 4 0 8 -46 12 -113 10 -34
-2 -37 0 -27 18 14 26 24 31 70 33 41 1 53 12 23 20 -10 3 16 6 57 7 50 1 68
4 55 10 -16 6 -10 9 25 12 26 3 6 5 -48 6 -60 1 -91 -2 -87 -8 3 -5 0 -10 -9
-10 -8 0 -16 5 -18 11 -2 6 -29 11 -61 11 -58 1 -58 1 -90 47 -17 25 -30 47
-28 49 1 2 -16 29 -39 59 -23 31 -46 65 -51 77 -20 44 -37 68 -83 116 l-47 50
-87 -1 c-58 0 -80 -3 -67 -9 18 -8 17 -9 -8 -9 -16 -1 -26 3 -22 9 3 6 -1 10
-9 10 -9 0 -16 -7 -16 -15 0 -17 -46 -21 -52 -4 -2 6 -26 9 -58 7 l-55 -3 23
-21 c28 -26 21 -33 -35 -29 -24 1 -43 -2 -43 -6 0 -5 14 -9 30 -9 17 0 42 -7
56 -16 13 -9 27 -14 31 -11 3 4 -5 11 -18 16 l-24 10 22 6 c13 4 20 12 16 21
-4 11 8 14 58 15 35 1 112 3 171 5 104 3 107 3 122 -21 l16 -25 -59 0 c-33 0
-63 -5 -66 -10 -5 -7 18 -10 70 -7 l77 3 14 -31 c11 -21 11 -25 2 -14 -10 13
-32 17 -92 18 -43 1 -82 3 -86 6 -5 3 -11 1 -14 -4 -3 -5 34 -12 84 -16 50 -4
93 -12 96 -17 4 -5 -4 -9 -17 -8 -61 5 -109 0 -107 -12 2 -10 -17 -13 -69 -13
-39 0 -75 -4 -80 -9 -4 -5 -3 -6 4 -2 19 11 65 -5 59 -20 -4 -10 24 -13 141
-11 107 1 147 -1 150 -10 3 -9 -25 -12 -109 -12 -62 0 -130 -3 -150 -7 -23 -4
-43 -2 -51 5 -10 8 -18 7 -32 -2 -15 -11 14 -13 173 -11 175 3 191 1 207 -16
9 -10 14 -23 11 -28 -3 -5 1 -15 9 -22 26 -22 16 -30 -35 -30 -40 0 -48 -3
-44 -15 5 -12 -4 -15 -44 -15 -28 0 -54 5 -57 10 -4 6 5 10 20 10 14 0 24 4
21 9 -3 4 -27 6 -54 3 -31 -2 -52 0 -56 7 -8 12 36 15 169 14 64 -1 66 -1 21
5 -62 9 -76 33 -17 30 23 -1 44 2 48 5 7 8 -9 9 -245 11 -96 0 -176 -3 -179
-7 -3 -5 53 -8 123 -7 176 3 194 2 194 -11 0 -8 -17 -10 -50 -7 -30 3 -51 1
-53 -6 -3 -8 -19 -7 -58 1 -30 6 -58 8 -63 5 -14 -8 23 -20 62 -21 54 -1 36
-21 -20 -21 -34 0 -58 6 -70 17 -18 16 -18 16 -12 0 5 -15 -1 -17 -44 -17 -28
0 -54 5 -57 10 -5 8 -11 8 -19 1 -11 -9 -104 -13 -266 -13 -105 1 -295 -1
-322 -2 -34 -1 -37 -13 -5 -19 12 -2 -7 -4 -43 -4 -36 0 -51 2 -35 4 17 3 34
9 40 14 6 6 -8 7 -37 3 -27 -4 -53 -2 -64 5 -22 12 -18 13 69 12 35 0 57 4 57
11 0 7 -15 9 -45 5 -24 -4 -47 -2 -50 2 -3 6 -20 5 -40 0 -19 -6 -40 -7 -46
-3 -6 3 -42 6 -80 5 -41 -1 -69 3 -69 9 0 5 16 10 35 10 19 0 35 4 35 9 0 5
-17 7 -39 4 -21 -3 -48 0 -60 7 -16 8 -26 8 -36 0 -7 -6 -25 -8 -42 -4 -15 4
-25 3 -21 -1 4 -4 22 -10 40 -14 33 -7 33 -7 10 -20 -15 -8 -28 -9 -35 -3 -7
5 -31 6 -57 2 l-45 -7 50 -4 c28 -1 65 -2 83 0 20 1 31 -2 28 -8 -4 -5 -55
-10 -117 -9 -61 0 -113 -3 -116 -6 -4 -3 44 -6 106 -6 68 0 110 -4 106 -10 -3
-5 -68 -9 -145 -9 -82 0 -140 4 -140 9 0 6 11 10 24 10 14 0 27 4 30 9 3 4
-53 7 -124 5 -83 -3 -130 0 -130 6 0 11 86 15 238 12 50 -1 92 2 92 7 0 6 -24
7 -55 4 -45 -5 -55 -3 -55 10 0 8 -7 17 -14 20 -10 4 -13 1 -9 -9 3 -8 -1 -14
-11 -14 -9 0 -16 8 -16 21 0 11 -4 18 -10 14 -5 -3 -7 -12 -4 -19 7 -18 -19
-26 -82 -26 -27 1 -65 -1 -84 -3 -19 -2 -42 0 -51 6 -9 6 -24 7 -35 2 -15 -6
-7 -10 34 -17 63 -11 61 -25 -3 -23 -47 2 -60 8 -60 28 0 7 -14 11 -35 10
-151 -7 -230 -5 -230 7 0 14 33 20 70 11 19 -4 67 -5 105 -2 39 4 134 6 213 5
79 0 137 3 130 7 -7 4 -37 6 -66 5 -29 -1 -55 1 -58 6 -3 5 -10 6 -15 2 -9 -5
-82 -8 -104 -4 -5 1 -18 2 -27 1 -10 -1 -18 3 -18 8 0 6 21 11 50 11 30 0 50
4 50 11 0 6 -7 9 -15 6 -8 -4 -17 -2 -20 2 -6 11 19 21 56 21 16 0 29 3 29 8
0 4 -25 7 -55 7 -50 0 -54 -2 -49 -21 5 -18 0 -22 -26 -26 -17 -3 -33 -1 -36
4 -3 4 -12 8 -21 8 -11 0 -9 -5 8 -19 30 -24 17 -39 -21 -24 -18 7 -32 7 -36
2 -7 -12 -81 -11 -89 1 -4 6 -11 8 -16 5 -5 -4 -9 -1 -9 4 0 6 10 11 22 11 34
0 16 9 -30 15 -46 6 -55 -1 -19 -14 20 -8 20 -10 4 -16 -23 -10 -46 11 -40 35
4 17 14 20 58 20 44 0 53 3 51 18 -1 13 7 17 31 17 17 0 29 3 26 7 -2 5 -34 8
-71 8 -52 -1 -63 -3 -49 -11 10 -6 25 -8 33 -5 8 3 14 1 14 -4 0 -6 -3 -10 -7
-11 -5 0 -28 -3 -52 -5 -30 -4 -47 -1 -52 8 -6 9 -9 9 -9 1 0 -6 4 -14 9 -17
4 -3 6 -17 3 -31 -4 -24 -8 -26 -64 -30 -9 0 -20 -4 -24 -8 -14 -13 -46 -8
-41 7 3 8 1 16 -4 18 -12 4 9 68 23 68 5 0 7 -8 4 -18 -5 -15 -1 -17 34 -14
22 2 37 8 34 13 -3 5 -13 8 -22 7 -13 -2 -17 5 -17 27 0 19 -5 29 -12 28 -7
-2 -13 2 -13 8 0 6 7 9 15 5 25 -9 78 5 66 17 -17 17 -13 27 7 21 13 -5 14 -4
3 4 -7 5 -10 15 -7 21 4 6 0 11 -8 11 -10 0 -16 9 -16 25 0 14 5 25 10 25 6 0
10 5 10 10 0 6 -7 10 -15 10 -9 0 -15 -9 -15 -23z m2213 6 c-7 -2 -19 -2 -25
0 -7 3 -2 5 12 5 14 0 19 -2 13 -5z m70 0 c-7 -2 -19 -2 -25 0 -7 3 -2 5 12 5
14 0 19 -2 13 -5z m-274 -7 c-12 -10 -59 -15 -59 -6 0 5 14 10 32 10 17 0 29
-2 27 -4z m-2079 -78 c0 -20 -17 -4 -28 25 l-12 32 20 -25 c11 -14 20 -28 20
-32z m-86 26 c3 -8 2 -12 -4 -9 -6 3 -10 10 -10 16 0 14 7 11 14 -7z m-34 -19
c-7 -9 -15 -13 -19 -10 -3 3 1 10 9 15 21 14 24 12 10 -5z m52 -17 c-7 -7 -12
-8 -12 -2 0 14 12 26 19 19 2 -3 -1 -11 -7 -17z m148 15 c0 -5 -4 -14 -9 -21
-7 -11 -9 -11 -14 1 -3 8 -3 18 0 21 9 8 23 7 23 -1z m-180 -13 c0 -5 -5 -10
-11 -10 -5 0 -7 5 -4 10 3 6 8 10 11 10 2 0 4 -4 4 -10z m-50 -10 c0 -5 -7
-10 -16 -10 -8 0 -12 5 -9 10 3 6 10 10 16 10 5 0 9 -4 9 -10z m-20 -29 c0 -6
-4 -13 -10 -16 -5 -3 -10 1 -10 9 0 9 5 16 10 16 6 0 10 -4 10 -9z m180 0 c0
-6 -4 -13 -10 -16 -5 -3 -10 -17 -10 -29 0 -13 -7 -29 -15 -36 -11 -9 -12 -17
-4 -31 5 -11 7 -23 4 -28 -9 -15 16 -18 103 -13 73 4 82 3 82 -13 0 -13 -5
-16 -24 -11 -14 3 -27 2 -31 -3 -3 -6 -18 -6 -38 0 -41 12 -43 11 -29 -3 7 -7
39 -11 84 -9 40 1 97 -1 127 -5 49 -6 53 -8 36 -20 -18 -14 -18 -14 1 -15 10
-1 21 -1 24 -1 3 0 101 3 218 7 155 5 212 3 212 -5 0 -7 -24 -11 -67 -11 -38
0 -133 -3 -213 -5 -166 -6 -164 -6 -248 -4 -37 0 -60 5 -57 10 4 6 29 10 57
10 28 0 49 2 46 5 -9 9 -267 12 -262 3 3 -4 36 -8 75 -8 38 0 69 -4 69 -8 0
-4 -45 -9 -100 -10 -59 -1 -100 3 -100 8 0 6 10 11 23 11 16 1 17 3 5 6 -28 7
-9 33 25 33 39 0 31 9 -11 12 -18 1 -31 7 -28 13 20 49 20 50 3 36 -9 -7 -17
-9 -17 -4 0 9 39 123 47 136 6 10 23 9 23 -2z m2468 -33 c16 -16 15 -28 -3
-28 -8 0 -15 4 -15 9 0 12 -71 20 -95 10 -11 -4 -14 -8 -7 -8 7 -1 10 -5 7
-11 -3 -5 -26 -10 -50 -10 -24 0 -47 5 -50 10 -4 6 8 10 30 10 22 0 38 6 41
15 8 19 124 21 142 3z m-40 -25 c-10 -2 -28 -2 -40 0 -13 2 -5 4 17 4 22 1 32
-1 23 -4z m-2493 -123 c-1 -17 -5 -33 -10 -38 -4 -4 -4 4 0 18 7 24 7 24 -9 5
-18 -23 -22 -5 -6 26 16 28 27 23 25 -11z m1150 10 c-3 -5 -10 -10 -16 -10 -5
0 -9 5 -9 10 0 6 7 10 16 10 8 0 12 -4 9 -10z m-681 -33 c-5 -14 -104 -22
-104 -8 0 13 17 18 67 19 29 1 41 -2 37 -11z m851 3 c19 -5 -5 -7 -67 -6 -54
1 -100 5 -104 9 -10 9 133 7 171 -3z m-1341 -33 c4 4 4 -1 0 -11 -4 -10 -10
-14 -13 -9 -11 15 -41 14 -41 -2 0 -8 5 -15 10 -15 17 0 11 -26 -11 -54 -32
-41 -45 -19 -24 41 22 59 45 81 61 58 6 -8 14 -12 18 -8z m1423 -1 c4 -3 -60
-6 -140 -5 -81 0 -147 5 -147 9 0 5 21 10 48 12 61 4 230 -7 239 -16z m293 4
c0 -5 -4 -10 -10 -10 -5 0 -10 -4 -10 -9 0 -6 11 -9 24 -8 14 1 25 -2 25 -8 1
-13 -108 -12 -117 1 -4 6 -15 13 -24 17 -39 14 -16 27 47 27 37 0 65 -4 65
-10z m90 0 c-20 -13 -57 -13 -65 0 -4 6 11 10 37 10 31 0 39 -3 28 -10z m400
-1 c0 -7 -18 -10 -50 -7 -28 1 -50 -1 -50 -6 0 -4 -19 -5 -42 -2 -24 3 -77 6
-118 7 -126 1 -31 14 123 17 96 2 137 -1 137 -9z m140 1 c0 -5 -24 -10 -54
-10 -30 0 -58 5 -61 10 -4 6 17 10 54 10 34 0 61 -4 61 -10z m100 0 c0 -5 -18
-10 -39 -10 -22 0 -43 5 -46 10 -4 6 12 10 39 10 25 0 46 -4 46 -10z m240 0
c0 -5 -20 -10 -45 -10 -25 0 -45 5 -45 10 0 6 20 10 45 10 25 0 45 -4 45 -10z
m-835 -10 c3 -5 23 -11 43 -11 20 -1 28 -4 18 -6 -15 -4 -16 -7 -5 -13 24 -15
0 -24 -27 -10 -14 8 -43 13 -65 13 -21 -1 -41 2 -44 8 -6 9 11 12 55 10 20 -2
22 0 10 8 -9 7 -10 11 -3 11 6 0 15 -4 18 -10z m-942 -26 c-6 -16 -59 -18
-115 -5 -24 6 -38 5 -38 -1 0 -6 -26 -9 -62 -7 -35 2 -69 0 -76 -4 -16 -11
-106 3 -95 14 9 9 110 15 280 16 90 0 110 -2 106 -13z m147 7 c0 -12 -26 -21
-60 -21 -34 0 -60 9 -60 21 0 5 27 9 60 9 33 0 60 -4 60 -9z m157 -5 c3 -3
-26 -6 -65 -6 -40 0 -72 4 -72 8 0 9 128 8 137 -2z m73 -8 c0 -13 -53 -6 -57
8 -2 7 8 9 27 6 16 -2 30 -9 30 -14z m98 5 c-12 -14 -78 -18 -78 -5 0 15 7 17
48 17 31 0 38 -3 30 -12z m96 11 c29 -11 17 -24 -23 -24 -38 0 -57 10 -44 24
8 8 46 8 67 0z m121 -3 c16 -7 13 -9 -18 -15 -40 -8 -77 -1 -77 15 0 11 67 11
95 0z m401 -6 c-11 -8 -29 -14 -40 -14 -17 1 -16 3 4 7 l25 5 -25 8 c-21 6
-19 7 15 8 37 0 39 -1 21 -14z m699 5 c-4 -6 -115 -9 -296 -9 -170 1 -287 5
-283 10 3 5 132 9 295 9 188 0 288 -3 284 -10z m-2590 -9 c16 -6 9 -10 -28
-15 -26 -4 -45 -11 -42 -17 4 -5 -10 -9 -29 -9 -20 0 -36 4 -36 9 0 4 12 6 28
4 25 -4 26 -3 7 9 -19 12 -19 13 10 19 41 9 66 9 90 0z m245 -3 c0 -5 -6 -8
-12 -9 -7 0 -4 -5 7 -10 21 -10 5 -7 -73 11 -17 4 -35 4 -38 -1 -6 -11 -55
-12 -80 -2 -16 6 -16 7 -1 12 24 9 197 7 197 -1z m150 1 c0 -9 -89 -17 -112
-11 -10 2 -16 8 -13 12 5 9 125 8 125 -1z m577 -15 c-3 -3 -12 -4 -19 -1 -8 3
-5 6 6 6 11 1 17 -2 13 -5z m1750 0 c-3 -3 -12 -4 -19 -1 -8 3 -5 6 6 6 11 1
17 -2 13 -5z m-2687 -14 c0 -6 -16 -10 -36 -10 -19 0 -33 3 -31 8 8 11 67 13
67 2z m533 3 c-7 -2 -21 -2 -30 0 -10 3 -4 5 12 5 17 0 24 -2 18 -5z m-685
-50 c-2 -41 -7 -44 -28 -23 -23 23 -16 50 11 50 14 0 18 -7 17 -27z m421 -7
c8 -9 8 -16 2 -20 -6 -4 -15 3 -21 14 -12 23 2 27 19 6z m-459 -26 c0 -5 -4
-10 -10 -10 -5 0 -10 5 -10 10 0 6 5 10 10 10 6 0 10 -4 10 -10z m-66 -52
c-18 -34 -19 -34 -19 -4 0 13 4 22 9 19 4 -3 5 5 1 17 -6 20 -5 21 8 9 13 -12
13 -18 1 -41z m46 7 c0 -7 -7 -16 -16 -19 -12 -5 -15 -2 -10 10 3 8 6 20 6 25
0 6 5 7 10 4 6 -3 10 -12 10 -20z m36 -12 c-11 -11 -17 4 -9 23 7 18 8 18 11
1 2 -10 1 -21 -2 -24z m-13 -53 c-3 -12 -8 -19 -11 -16 -5 6 5 36 12 36 2 0 2
-9 -1 -20z m-67 -38 c-12 -11 -18 7 -10 30 l8 23 4 -23 c2 -13 1 -26 -2 -30z
m-26 -63 c0 -6 -4 -7 -10 -4 -5 3 -10 11 -10 16 0 6 5 7 10 4 6 -3 10 -11 10
-16z m-50 -43 c0 -3 -4 -8 -10 -11 -5 -3 -10 -1 -10 4 0 6 5 11 10 11 6 0 10
-2 10 -4z"/>
<path d="M4068 4143 c7 -3 16 -2 19 1 4 3 -2 6 -13 5 -11 0 -14 -3 -6 -6z"/>
<path d="M4595 4540 c-3 -6 1 -7 9 -4 18 7 21 14 7 14 -6 0 -13 -4 -16 -10z"/>
<path d="M3580 4493 c8 -53 0 -66 -37 -60 -13 2 -23 0 -23 -6 0 -5 22 -8 54
-5 41 3 53 1 49 -8 -3 -7 -12 -15 -21 -17 -10 -2 1 -2 23 1 22 3 67 8 100 12
l60 7 -48 2 c-32 1 -46 5 -41 12 3 6 15 9 25 6 12 -3 19 0 19 9 0 21 -4 29
-12 27 -11 -4 -10 15 1 21 5 4 11 1 13 -5 4 -11 87 7 98 22 3 4 14 9 25 11 11
3 -46 3 -127 0 -108 -4 -148 -2 -148 7 0 6 -4 11 -8 11 -5 0 -6 -21 -2 -47z
m93 10 c-7 -2 -19 -2 -25 0 -7 3 -2 5 12 5 14 0 19 -2 13 -5z m-33 -17 c0 -3
-4 -8 -10 -11 -5 -3 -10 -1 -10 4 0 6 5 11 10 11 6 0 10 -2 10 -4z"/>
<path d="M3480 4520 c0 -5 5 -10 11 -10 5 0 7 5 4 10 -3 6 -8 10 -11 10 -2 0
-4 -4 -4 -10z"/>
<path d="M3894 4519 c-12 -19 19 -30 71 -25 28 3 73 6 100 6 36 0 46 3 35 10
-12 8 -9 10 13 10 16 0 26 -4 22 -10 -4 -6 5 -10 20 -10 15 0 24 4 20 10 -4 6
7 10 27 10 25 0 29 -3 18 -10 -12 -8 -9 -10 13 -10 16 0 26 4 22 9 -3 5 5 12
17 14 13 2 -53 5 -147 5 -93 0 -164 -2 -157 -5 24 -10 11 -23 -23 -23 -34 0
-47 13 -22 23 7 3 6 6 -5 6 -9 1 -20 -4 -24 -10z m144 -6 c-10 -2 -26 -2 -35
0 -10 3 -2 5 17 5 19 0 27 -2 18 -5z"/>
<path d="M4304 4517 c-9 -10 -2 -13 30 -14 23 0 33 2 24 4 -10 3 -18 9 -18 14
0 13 -23 10 -36 -4z"/>
<path d="M4368 4523 c7 -3 16 -2 19 1 4 3 -2 6 -13 5 -11 0 -14 -3 -6 -6z"/>
<path d="M4405 4520 c-8 -13 15 -13 35 0 12 8 11 10 -7 10 -12 0 -25 -4 -28
-10z"/>
<path d="M4585 4490 c-3 -5 1 -10 9 -10 8 0 18 -5 22 -11 5 -8 -4 -10 -30 -7
-33 4 -36 2 -36 -20 0 -20 -4 -24 -24 -20 -14 3 -42 2 -63 -2 -25 -5 4 -8 82
-7 66 1 111 3 100 5 -11 2 -27 6 -35 9 -19 8 30 20 87 22 23 0 44 4 46 9 3 4
-21 6 -54 6 -32 -1 -59 2 -59 7 0 14 -38 30 -45 19z m2 -56 c-3 -3 -12 -4 -19
-1 -8 3 -5 6 6 6 11 1 17 -2 13 -5z"/>
<path d="M4665 4490 c-17 -7 -14 -9 13 -9 20 -1 31 3 27 9 -7 12 -13 12 -40 0z"/>
<path d="M4213 4483 c-18 -2 -33 -8 -33 -12 0 -4 16 -5 35 -3 19 2 35 8 35 13
0 5 -1 8 -2 7 -2 0 -18 -3 -35 -5z"/>
<path d="M4320 4475 c10 -13 9 -15 -8 -15 -11 0 -23 6 -25 13 -3 7 -6 5 -6 -6
-1 -10 -7 -17 -13 -16 -45 6 -76 -2 -74 -18 1 -14 -5 -17 -28 -15 -16 2 -36 0
-45 -4 -12 -5 -9 -9 14 -14 26 -7 24 -8 -19 -9 -41 -1 -47 1 -37 13 16 19 4
23 -44 15 -29 -4 -33 -7 -13 -8 63 -3 30 -30 -37 -31 -21 0 -26 -3 -16 -9 11
-7 11 -9 0 -14 -8 -3 -4 -6 9 -6 13 -1 21 3 18 8 -7 11 52 23 68 14 6 -5 -1
-10 -19 -14 l-30 -7 28 -1 c15 0 27 -6 27 -11 0 -7 -42 -10 -121 -9 -124 1
-156 -4 -94 -15 19 -4 35 -11 35 -16 0 -13 -38 -23 -52 -13 -7 4 -17 8 -23 8
-5 0 -9 8 -7 18 2 9 -2 17 -7 17 -6 0 -8 7 -5 15 5 12 -2 15 -37 14 -25 -1
-33 -4 -19 -6 23 -4 55 -47 45 -62 -3 -6 -80 -5 -209 2 -23 1 -41 8 -44 16 -3
10 0 12 12 8 9 -4 16 -2 16 3 0 6 -28 9 -62 8 -48 -1 -53 -2 -21 -5 24 -2 44
-10 47 -19 3 -9 -1 -14 -11 -14 -9 0 -14 -2 -11 -5 11 -11 416 -17 423 -6 3 6
-1 14 -9 17 -26 10 -7 26 28 23 81 -5 136 1 136 16 0 9 10 15 26 15 15 0 23 4
19 11 -4 6 -13 8 -21 5 -8 -3 -14 -1 -14 4 0 13 90 13 110 0 12 -8 9 -10 -11
-10 -15 0 -29 -6 -32 -14 -3 -8 -18 -16 -34 -19 -15 -2 18 -5 75 -6 75 -1 101
2 100 11 -3 13 0 14 75 18 52 3 52 4 10 7 -43 4 -61 23 -23 23 11 0 20 5 20
11 0 7 -7 8 -17 4 -10 -4 -26 -10 -35 -12 -10 -3 -15 -9 -13 -14 9 -13 -65
-23 -78 -10 -8 8 -7 11 4 13 56 5 54 11 -6 17 l-60 6 65 11 c59 10 61 12 23
13 -73 2 -48 21 27 21 67 0 70 1 58 20 -7 11 -19 22 -27 25 -11 4 -12 3 -1
-10z m-60 -135 c23 -7 22 -8 -10 -8 -19 0 -44 3 -55 8 -17 7 -15 9 10 8 17 0
41 -4 55 -8z"/>
<path d="M4368 4483 c7 -3 16 -2 19 1 4 3 -2 6 -13 5 -11 0 -14 -3 -6 -6z"/>
<path d="M2613 4473 c20 -5 22 -19 5 -26 -7 -3 5 -5 27 -5 22 0 32 2 22 5 -11
3 -16 11 -13 19 4 10 -3 14 -27 13 -18 -1 -24 -3 -14 -6z"/>
<path d="M2703 4473 c9 -2 23 -2 30 0 6 3 -1 5 -18 5 -16 0 -22 -2 -12 -5z"/>
<path d="M3093 4473 c-18 -7 -16 -43 1 -43 10 0 12 7 9 21 -5 19 -3 21 20 17
15 -3 27 -1 27 3 0 10 -37 11 -57 2z"/>
<path d="M3785 4470 c-19 -8 -19 -9 2 -9 12 -1 25 4 28 9 7 12 -2 12 -30 0z"/>
<path d="M3870 4470 l-45 -7 58 -1 c32 -1 57 2 57 8 0 11 -1 11 -70 0z"/>
<path d="M3995 4470 c-3 -5 1 -10 9 -10 9 0 16 5 16 10 0 6 -4 10 -9 10 -6 0
-13 -4 -16 -10z"/>
<path d="M4055 4470 c27 -12 35 -12 35 0 0 6 -12 10 -27 9 -25 0 -26 -1 -8 -9z"/>
<path d="M4106 4466 c4 -11 -4 -16 -38 -19 -36 -3 -34 -4 17 -5 36 -1 55 2 47
7 -8 4 -13 12 -12 17 1 5 -3 10 -9 12 -6 2 -8 -3 -5 -12z"/>
<path d="M2699 4449 c-10 -6 -7 -9 14 -9 29 0 35 5 14 13 -8 3 -20 1 -28 -4z"/>
<path d="M2825 4450 c3 -5 11 -10 16 -10 6 0 7 5 4 10 -3 6 -11 10 -16 10 -6
0 -7 -4 -4 -10z"/>
<path d="M2910 4450 c0 -5 5 -10 11 -10 5 0 7 5 4 10 -3 6 -8 10 -11 10 -2 0
-4 -4 -4 -10z"/>
<path d="M2996 4451 c-3 -5 5 -11 19 -13 30 -6 32 -2 6 12 -11 6 -22 6 -25 1z"/>
<path d="M4440 4450 c0 -5 9 -10 21 -10 11 0 17 5 14 10 -3 6 -13 10 -21 10
-8 0 -14 -4 -14 -10z"/>
<path d="M3354 4441 c7 -11 56 -21 56 -11 0 9 -25 20 -46 20 -9 0 -13 -4 -10
-9z"/>
<path d="M3828 4443 c18 -2 45 -2 60 0 15 2 0 4 -33 4 -33 0 -45 -2 -27 -4z"/>
<path d="M3965 4440 l-40 -7 35 -1 c19 -1 42 3 50 8 16 11 14 11 -45 0z"/>
<path d="M4376 4435 c5 -11 -2 -15 -27 -15 -18 0 -30 -3 -26 -6 9 -10 98 6 92
16 -3 4 1 11 7 13 7 3 -1 6 -19 6 -25 1 -31 -2 -27 -14z"/>
<path d="M3425 4430 c3 -6 25 -10 47 -10 52 0 41 13 -13 17 -24 2 -38 -1 -34
-7z"/>
<path d="M4686 4430 c-19 -6 -19 -7 -1 -14 10 -3 22 -3 28 3 12 12 -4 20 -27
11z"/>
<path d="M2641 4426 c7 -8 108 -10 115 -3 4 4 -21 7 -56 7 -35 0 -61 -2 -59
-4z"/>
<path d="M2770 4418 c0 -4 9 -8 20 -8 11 0 20 4 20 9 0 6 -9 9 -20 8 -11 -1
-20 -5 -20 -9z"/>
<path d="M2855 4420 c28 -12 45 -12 45 0 0 6 -15 10 -32 9 -28 0 -30 -2 -13
-9z"/>
<path d="M2936 4406 c3 -8 -2 -16 -13 -19 -10 -3 18 -4 62 -4 63 1 68 2 23 4
-58 4 -77 18 -35 26 16 3 13 5 -10 6 -24 1 -31 -3 -27 -13z"/>
<path d="M3033 4413 c9 -2 25 -2 35 0 9 3 1 5 -18 5 -19 0 -27 -2 -17 -5z"/>
<path d="M3158 4407 c24 -7 36 -7 44 1 9 9 1 12 -32 11 l-45 -1 33 -11z"/>
<path d="M3245 4414 c46 -7 125 -8 125 -1 0 4 -33 6 -72 6 -40 -1 -64 -3 -53
-5z"/>
<path d="M3821 4416 c12 -10 59 -15 59 -6 0 5 -14 10 -32 10 -17 0 -29 -2 -27
-4z"/>
<path d="M3905 4410 c-4 -6 3 -10 14 -10 25 0 27 6 6 13 -8 4 -17 2 -20 -3z"/>
<path d="M3955 4410 c-3 -5 1 -10 9 -10 9 0 16 5 16 10 0 6 -4 10 -9 10 -6 0
-13 -4 -16 -10z"/>
<path d="M3460 4399 c0 -4 10 -10 23 -12 17 -3 16 -5 -8 -6 l-30 -1 30 -16
c24 -12 34 -13 52 -3 18 9 29 10 48 1 37 -17 66 -15 59 3 -4 9 -14 14 -23 11
-9 -2 -36 -1 -61 4 -42 7 -42 8 -11 9 19 0 31 4 27 8 -10 10 -106 12 -106 2z"/>
<path d="M5802 4382 c-18 -16 -32 -32 -32 -35 0 -4 14 5 31 20 17 16 40 31 52
35 21 6 21 6 1 7 -11 1 -35 -12 -52 -27z"/>
<path d="M6010 4400 c19 -5 51 -11 71 -15 30 -4 43 -15 72 -59 19 -29 37 -66
40 -82 4 -28 4 -28 6 4 1 24 -10 47 -39 87 -42 56 -50 60 -135 69 -43 4 -45 4
-15 -4z"/>
<path d="M2593 4393 c9 -2 25 -2 35 0 9 3 1 5 -18 5 -19 0 -27 -2 -17 -5z"/>
<path d="M2675 4390 c-3 -5 1 -10 9 -10 8 0 18 5 21 10 3 6 -1 10 -9 10 -8 0
-18 -4 -21 -10z"/>
<path d="M2742 4389 c17 -11 55 -11 62 0 3 4 -13 8 -35 8 -26 0 -36 -3 -27 -8z"/>
<path d="M3088 4378 c-10 -10 -26 -18 -35 -19 -16 0 -16 -1 1 -8 10 -4 33 -5
50 -2 19 3 24 6 14 9 -10 2 -18 8 -18 14 0 8 35 9 114 5 83 -5 117 -4 122 5 5
7 1 9 -13 6 -11 -3 -64 -2 -119 1 -86 6 -101 4 -116 -11z"/>
<path d="M4460 4390 c-36 -4 -57 -7 -48 -8 9 -1 19 -8 21 -14 4 -10 6 -10 6 0
1 8 18 12 51 12 28 0 50 5 50 10 0 6 -3 9 -7 8 -5 -1 -37 -4 -73 -8z"/>
<path d="M4657 4388 c2 -5 31 -8 64 -8 32 0 59 3 59 8 0 4 -29 7 -64 7 -35 0
-62 -3 -59 -7z"/>
<path d="M5913 4393 c9 -2 23 -2 30 0 6 3 -1 5 -18 5 -16 0 -22 -2 -12 -5z"/>
<path d="M1479 4377 c5 -5 19 -7 32 -5 20 3 19 5 -9 9 -20 3 -29 2 -23 -4z"/>
<path d="M2838 4383 c12 -2 30 -2 40 0 9 3 -1 5 -23 4 -22 0 -30 -2 -17 -4z"/>
<path d="M3365 4380 c-25 -11 1 -11 35 0 20 6 21 8 5 8 -11 0 -29 -3 -40 -8z"/>
<path d="M3680 4380 c-25 -4 -37 -8 -27 -8 10 -1 15 -6 12 -12 -3 -5 1 -10 9
-10 9 0 16 5 16 10 0 6 9 10 20 10 11 0 20 5 20 10 0 6 -1 9 -2 8 -2 0 -23 -4
-48 -8z"/>
<path d="M3780 4380 l-35 -7 43 -2 c23 0 42 4 42 9 0 6 -3 9 -7 9 -5 -1 -24
-5 -43 -9z"/>
<path d="M3885 4380 l-50 -7 52 -1 c28 -1 55 3 58 8 3 6 3 9 -2 8 -4 0 -30 -4
-58 -8z"/>
<path d="M4578 4383 c12 -2 32 -2 45 0 12 2 2 4 -23 4 -25 0 -35 -2 -22 -4z"/>
<path d="M1274 4358 l-19 -23 25 20 c14 11 27 21 29 22 2 2 0 3 -6 3 -5 0 -18
-10 -29 -22z"/>
<path d="M1368 4373 c6 -2 18 -2 25 0 6 3 1 5 -13 5 -14 0 -19 -2 -12 -5z"/>
<path d="M2553 4369 c-11 -5 2 -8 35 -8 28 -1 52 1 52 3 0 8 -69 12 -87 5z"/>
<path d="M1560 4363 c20 -7 60 -44 60 -55 0 -5 9 -18 20 -30 31 -33 26 -73
-14 -113 -41 -41 -48 -35 -67 50 -13 61 -24 85 -41 85 -5 0 -2 -7 6 -16 9 -8
16 -20 16 -25 0 -6 -62 -8 -157 -7 l-158 3 0 27 c1 19 -2 25 -10 17 -15 -15
-19 -419 -6 -526 7 -48 26 -173 42 -278 34 -212 34 -298 -1 -400 -26 -76 -25
-110 3 -139 62 -62 289 -60 337 2 25 31 25 61 -1 142 -31 93 -30 233 4 425 41
236 47 292 48 474 1 133 4 173 15 182 23 19 16 67 -17 117 -37 54 -57 72 -78
71 -14 0 -14 -1 -1 -6z m-5 -173 c16 -74 41 -92 63 -47 9 20 11 17 11 -20 l1
-43 -52 0 c-61 0 -60 -7 2 -13 44 -4 45 -4 48 -43 6 -64 -17 -286 -49 -474
-38 -226 -40 -346 -5 -452 45 -138 21 -163 -154 -163 -177 0 -197 24 -149 175
29 89 29 229 0 380 -26 138 -48 315 -57 464 -6 87 -4 110 7 117 10 6 10 9 2 9
-9 0 -13 20 -13 64 0 103 -11 97 174 94 l161 -3 10 -45z"/>
<path d="M1338 4073 c34 -2 88 -2 120 0 31 2 3 3 -63 3 -66 0 -92 -1 -57 -3z"/>
<path d="M1291 3050 c26 -41 57 -51 135 -47 47 3 79 10 95 22 l24 17 -25 -7
c-64 -18 -130 -27 -153 -21 -14 3 -40 18 -59 33 -33 28 -33 28 -17 3z"/>
<path d="M2218 4341 c-4 -27 -2 -28 18 -21 16 6 24 5 28 -5 3 -8 1 -17 -5 -20
-5 -4 -7 -11 -4 -16 6 -9 65 49 65 64 0 4 -9 3 -20 -3 -11 -6 -18 -15 -15 -21
4 -5 2 -9 -3 -9 -6 0 -13 7 -16 16 -4 10 -12 14 -22 10 -13 -5 -15 -2 -11 14
3 11 2 20 -3 20 -4 0 -10 -13 -12 -29z"/>
<path d="M2833 4363 c28 -4 37 -27 15 -36 -8 -4 -7 -6 4 -6 9 -1 18 -6 20 -12
2 -7 9 -5 17 5 11 13 11 16 -2 16 -8 0 -14 8 -13 18 1 13 -7 17 -34 18 -26 1
-28 1 -7 -3z"/>
<path d="M2916 4359 c5 -9 74 -7 74 2 0 5 -18 7 -39 6 -22 0 -38 -4 -35 -8z"/>
<path d="M3190 4359 c-21 -4 0 -6 55 -7 89 0 97 4 20 10 -22 2 -56 0 -75 -3z"/>
<path d="M4495 4360 l-50 -7 58 -1 c32 -1 57 2 57 8 0 6 -3 9 -7 8 -5 0 -30
-4 -58 -8z"/>
<path d="M3390 4345 c-7 -8 -25 -15 -41 -15 -16 0 -29 -5 -29 -11 0 -6 7 -8
16 -5 9 3 27 6 40 6 14 0 24 6 24 14 0 8 8 17 18 19 14 4 14 5 1 6 -9 0 -22
-6 -29 -14z"/>
<path d="M3883 4353 c9 -2 23 -2 30 0 6 3 -1 5 -18 5 -16 0 -22 -2 -12 -5z"/>
<path d="M4583 4353 c9 -2 25 -2 35 0 9 3 1 5 -18 5 -19 0 -27 -2 -17 -5z"/>
<path d="M2765 4329 c-11 -4 -14 -8 -7 -8 6 -1 12 -9 13 -18 0 -13 3 -11 10 6
11 29 10 31 -16 20z"/>
<path d="M2810 4329 c0 -5 5 -7 10 -4 6 3 10 8 10 11 0 2 -4 4 -10 4 -5 0 -10
-5 -10 -11z"/>
<path d="M3180 4332 c0 -15 32 -24 44 -12 7 7 7 10 -1 10 -6 0 -18 3 -27 6 -9
3 -16 2 -16 -4z"/>
<path d="M3727 4334 c-3 -3 -40 -6 -83 -5 -42 0 -74 -3 -70 -7 10 -9 176 -10
176 -1 0 11 -16 20 -23 13z"/>
<path d="M4360 4336 c0 -9 30 -14 35 -6 4 6 -3 10 -14 10 -12 0 -21 -2 -21 -4z"/>
<path d="M4445 4330 l-40 -7 48 -2 c26 0 47 4 47 9 0 6 -3 9 -7 9 -5 -1 -26
-5 -48 -9z"/>
<path d="M4560 4330 l-45 -7 48 -1 c26 -1 47 3 47 8 0 6 -1 9 -2 8 -2 0 -23
-4 -48 -8z"/>
<path d="M3058 4323 c6 -2 18 -2 25 0 6 3 1 5 -13 5 -14 0 -19 -2 -12 -5z"/>
<path d="M3118 4323 c6 -2 18 -2 25 0 6 3 1 5 -13 5 -14 0 -19 -2 -12 -5z"/>
<path d="M3268 4323 c6 -2 18 -2 25 0 6 3 1 5 -13 5 -14 0 -19 -2 -12 -5z"/>
<path d="M4633 4323 c9 -2 23 -2 30 0 6 3 -1 5 -18 5 -16 0 -22 -2 -12 -5z"/>
<path d="M5743 4318 c-4 -7 -10 -107 -11 -223 -4 -222 2 -291 55 -605 29 -178
27 -275 -8 -378 -25 -74 -20 -124 15 -147 39 -26 172 -40 240 -25 106 22 125
65 85 190 -32 96 -29 222 10 450 32 183 57 509 44 572 -3 16 0 35 7 43 7 9 8
15 2 15 -6 0 -21 -13 -35 -30 -31 -36 -39 -28 -57 57 -7 35 -21 70 -31 79 -23
20 -26 9 -4 -13 8 -8 13 -18 11 -21 -2 -4 -73 -7 -158 -7 l-153 1 0 27 c1 31
-1 32 -12 15z m342 -104 c10 -41 30 -74 45 -74 4 0 12 10 18 23 9 20 11 17 11
-20 l1 -43 -52 -2 -53 -2 53 -3 52 -4 0 -57 c0 -98 -20 -281 -47 -437 -15 -82
-28 -203 -31 -269 -3 -106 -1 -127 22 -202 45 -142 20 -169 -154 -169 -135 0
-170 15 -170 76 0 22 9 65 19 97 35 105 35 187 2 386 -47 278 -71 575 -46 577
6 0 4 3 -2 6 -9 3 -13 27 -13 68 0 102 -11 96 173 93 l161 -3 11 -41z"/>
<path d="M5868 4093 c34 -2 88 -2 120 0 31 2 3 3 -63 3 -66 0 -92 -1 -57 -3z"/>
<path d="M5819 3072 c17 -32 63 -52 120 -52 51 0 131 25 131 41 0 4 -15 2 -32
-5 -31 -13 -94 -20 -145 -17 -12 0 -36 13 -54 28 -29 25 -31 25 -20 5z"/>
<path d="M2545 4300 c-30 -8 -30 -8 8 -9 23 -1 36 3 32 9 -3 6 -7 9 -8 9 -1
-1 -15 -5 -32 -9z"/>
<path d="M3060 4298 c-14 -5 -33 -7 -42 -4 -10 2 -18 0 -18 -4 0 -5 33 -9 73
-9 41 0 78 -1 83 -2 28 -5 114 2 114 10 0 5 -18 7 -40 5 -22 -2 -51 1 -65 6
-15 6 -26 6 -30 0 -8 -12 -42 -13 -47 -1 -2 5 -14 5 -28 -1z"/>
<path d="M3444 4299 c-4 -7 -24 -10 -53 -6 -53 5 -71 1 -71 -18 0 -7 -6 -15
-12 -18 -7 -2 6 -7 30 -12 24 -4 46 -4 49 -1 4 3 -3 6 -14 6 -11 0 -26 7 -33
15 -11 13 -3 15 59 15 56 0 71 3 71 15 0 18 -16 20 -26 4z"/>
<path d="M4235 4300 c-3 -5 -19 -10 -35 -10 -22 0 -28 -4 -24 -15 5 -12 -4
-15 -47 -17 -52 -1 -51 -2 16 -7 67 -6 94 -3 68 6 -30 11 -9 23 38 23 55 0 61
-19 6 -21 -26 0 -28 -2 -12 -8 19 -8 19 -8 -2 -19 -27 -15 -86 -15 -100 -1 -8
8 -13 8 -17 0 -4 -6 -19 -11 -34 -12 -15 0 -35 -3 -44 -7 -10 -4 42 -6 115 -5
158 3 440 12 447 14 3 1 -24 5 -60 9 -45 5 -67 4 -72 -4 -6 -8 -12 -8 -27 1
-10 6 -28 9 -39 6 -11 -2 -22 0 -26 5 -3 6 25 10 71 11 43 1 81 5 85 9 4 4
-45 6 -107 5 -71 -2 -115 1 -115 7 0 6 14 10 30 10 17 0 30 4 30 9 0 13 -16
22 -24 14 -10 -10 -89 -10 -103 -1 -6 5 -14 5 -18 -2z m135 -61 c0 -11 -29
-19 -66 -19 -23 0 -34 5 -34 15 0 11 12 14 50 12 27 -1 50 -5 50 -8z"/>
<path d="M2730 4290 c0 -5 4 -10 9 -10 6 0 13 5 16 10 3 6 -1 10 -9 10 -9 0
-16 -4 -16 -10z"/>
<path d="M3958 4288 c-13 -3 25 -6 85 -7 59 -1 107 3 107 8 0 10 -155 10 -192
-1z"/>
<path d="M4390 4288 c0 -5 18 -8 40 -8 22 0 40 3 40 8 0 4 -18 7 -40 7 -22 0
-40 -3 -40 -7z"/>
<path d="M4550 4290 c0 -5 5 -10 10 -10 6 0 10 5 10 10 0 6 -4 10 -10 10 -5 0
-10 -4 -10 -10z"/>
<path d="M4598 4293 c6 -2 18 -2 25 0 6 3 1 5 -13 5 -14 0 -19 -2 -12 -5z"/>
<path d="M2232 4250 c0 -14 2 -19 5 -12 2 6 2 18 0 25 -3 6 -5 1 -5 -13z"/>
<path d="M2277 4263 c-4 -3 -7 -11 -7 -17 0 -6 5 -5 12 2 6 6 9 14 7 17 -3 3
-9 2 -12 -2z"/>
<path d="M4049 4266 c-2 -3 -35 -7 -73 -11 -38 -3 -73 -8 -78 -11 -5 -3 -14
-2 -21 4 -14 10 -99 4 -92 -8 5 -8 188 -4 242 5 18 3 35 10 38 15 6 10 -7 14
-16 6z"/>
<path d="M3720 4250 l-35 -7 43 -2 c23 0 42 4 42 9 0 6 -3 9 -7 9 -5 -1 -24
-5 -43 -9z"/>
<path d="M4565 4250 c4 -6 11 -8 16 -5 14 9 11 15 -7 15 -8 0 -12 -5 -9 -10z"/>
<path d="M2146 4234 c-9 -23 -8 -42 2 -28 4 6 12 13 19 15 8 3 7 7 -2 16 -10
10 -14 9 -19 -3z"/>
<path d="M2192 4205 c-17 -37 -14 -45 4 -12 9 16 14 31 11 33 -2 2 -9 -7 -15
-21z"/>
<path d="M2312 4219 c2 -6 8 -10 13 -10 5 0 11 4 13 10 2 6 -4 11 -13 11 -9 0
-15 -5 -13 -11z"/>
<path d="M4004 4221 c-5 -5 -22 -11 -39 -14 -27 -4 -27 -4 7 -6 20 0 40 4 43
10 9 14 1 21 -11 10z"/>
<path d="M2068 4173 c7 -3 16 -2 19 1 4 3 -2 6 -13 5 -11 0 -14 -3 -6 -6z"/>
<path d="M2100 4123 c-7 -21 -16 -42 -21 -47 -5 -6 -8 -19 -8 -30 1 -18 2 -18
6 -3 3 11 11 16 21 13 12 -4 18 1 19 17 1 12 4 37 6 55 5 44 -9 41 -23 -5z
m11 -20 c-12 -20 -14 -14 -5 12 4 9 9 14 11 11 3 -2 0 -13 -6 -23z"/>
<path d="M2225 4150 c3 -5 8 -10 11 -10 2 0 4 5 4 10 0 6 -5 10 -11 10 -5 0
-7 -4 -4 -10z"/>
<path d="M2273 4153 c9 -2 23 -2 30 0 6 3 -1 5 -18 5 -16 0 -22 -2 -12 -5z"/>
<path d="M2058 4143 c7 -3 16 -2 19 1 4 3 -2 6 -13 5 -11 0 -14 -3 -6 -6z"/>
<path d="M2170 4130 c-14 -11 -19 -20 -11 -20 8 0 11 -6 6 -17 -10 -28 10 -2
23 30 14 32 14 32 -18 7z"/>
<path d="M2238 4118 c-19 -16 -32 -61 -15 -55 10 3 42 67 34 67 -2 0 -10 -6
-19 -12z"/>
<path d="M5310 4099 c0 -5 5 -7 10 -4 6 3 10 8 10 11 0 2 -4 4 -10 4 -5 0 -10
-5 -10 -11z"/>
<path d="M4437 4069 c4 -23 3 -30 -5 -25 -7 4 -12 16 -12 27 0 10 -5 19 -10
19 -6 0 -8 -11 -4 -25 8 -31 -3 -33 -16 -2 -6 15 -7 2 -3 -40 4 -45 2 -63 -6
-63 -9 0 -9 -5 0 -22 7 -13 12 -24 11 -25 -1 -2 -1 -11 0 -20 1 -10 4 16 7 57
l6 75 50 2 c28 1 76 0 108 -3 l57 -6 0 -36 c0 -46 12 -34 15 15 1 21 6 48 10
61 6 19 4 22 -19 22 -28 0 -33 -9 -14 -28 9 -9 7 -12 -9 -12 -16 0 -19 5 -15
25 2 15 0 25 -7 25 -7 0 -10 -4 -7 -9 4 -5 3 -16 0 -25 -5 -12 -20 -16 -59
-16 -53 0 -80 15 -55 30 9 6 7 11 -8 19 -20 11 -21 10 -15 -20z"/>
<path d="M4540 4075 c0 -14 4 -25 9 -25 4 0 6 11 3 25 -2 14 -6 25 -8 25 -2 0
-4 -11 -4 -25z"/>
<path d="M3940 4081 c0 -5 5 -13 10 -16 6 -3 10 -2 10 4 0 5 -4 13 -10 16 -5
3 -10 2 -10 -4z"/>
<path d="M4480 4078 c0 -9 5 -20 10 -23 13 -8 13 5 0 25 -8 13 -10 13 -10 -2z"/>
<path d="M4511 4074 c0 -11 3 -14 6 -6 3 7 2 16 -1 19 -3 4 -6 -2 -5 -13z"/>
<path d="M3910 4065 c0 -8 7 -15 15 -15 9 0 12 6 9 15 -4 8 -10 15 -15 15 -5
0 -9 -7 -9 -15z"/>
<path d="M4086 4065 c4 -8 8 -15 10 -15 2 0 4 7 4 15 0 8 -4 15 -10 15 -5 0
-7 -7 -4 -15z"/>
<path d="M4116 4071 c-4 -7 -5 -15 -2 -18 9 -9 19 4 14 18 -4 11 -6 11 -12 0z"/>
<path d="M4156 4065 c-3 -8 -1 -15 4 -15 6 0 10 7 10 15 0 8 -2 15 -4 15 -2 0
-6 -7 -10 -15z"/>
<path d="M5190 4070 c0 -13 18 -22 24 -11 3 5 15 7 26 4 11 -3 20 -1 20 4 0 5
-16 10 -35 11 -19 1 -35 -3 -35 -8z"/>
<path d="M2905 4061 c-3 -5 -1 -12 5 -16 5 -3 10 1 10 9 0 18 -6 21 -15 7z"/>
<path d="M3285 4058 c-6 -20 -12 -179 -6 -173 2 3 8 38 12 78 5 50 6 29 4 -70
-3 -119 -1 -142 11 -147 24 -9 27 -7 14 9 -10 12 -7 13 22 5 18 -6 34 -10 35
-10 14 0 -7 -30 -58 -85 -34 -36 -53 -62 -43 -58 11 4 -18 -33 -64 -82 -45
-48 -80 -90 -77 -93 2 -3 12 1 21 9 12 10 44 13 115 12 55 -1 99 0 99 3 0 21
-57 94 -74 94 -5 0 -29 -16 -53 -36 -79 -65 -55 -30 57 81 61 60 110 114 110
119 0 5 -11 -1 -25 -14 -28 -27 -33 -16 -7 15 31 37 54 28 132 -50 41 -41 70
-78 66 -82 -4 -4 -38 26 -76 67 -38 41 -72 71 -75 68 -3 -3 47 -60 111 -127
132 -136 149 -157 135 -166 -6 -3 -8 -12 -4 -20 3 -8 -1 -15 -8 -15 -7 0 -9 3
-6 7 4 3 -1 12 -12 19 -13 10 -67 14 -193 14 -177 2 -252 -5 -242 -21 3 -5 -5
-5 -18 0 -13 4 -28 6 -33 4 -15 -5 -6 -83 10 -83 7 0 16 -7 19 -16 5 -13 9
-14 21 -4 13 11 15 8 15 -19 0 -17 -4 -31 -10 -31 -5 0 -10 5 -10 10 0 6 -7
10 -15 10 -13 0 -19 12 -16 32 0 4 -5 5 -13 2 -8 -3 -13 -13 -11 -22 2 -9 4
-23 4 -30 1 -9 6 -10 20 -2 23 12 34 0 25 -25 -4 -10 -14 -15 -25 -12 -13 3
-19 0 -20 -11 -1 -13 0 -189 1 -224 0 -4 7 -5 16 -1 10 4 17 -1 21 -16 3 -11
12 -21 21 -21 12 0 13 -3 5 -11 -13 -13 -54 -3 -50 13 1 6 -4 13 -10 15 -8 3
-13 -4 -13 -15 0 -16 -6 -20 -30 -20 -30 1 -30 1 -14 27 l17 26 -28 -25 c-28
-25 -26 -13 4 25 15 19 15 19 -3 5 -18 -14 -19 -13 -13 5 7 19 6 19 -7 3 -7
-10 -17 -18 -21 -18 -4 0 -2 7 5 15 6 8 9 19 6 24 -4 5 -1 13 5 17 8 5 9 3 4
-7 -8 -12 -6 -12 8 0 18 15 23 26 7 16 -5 -3 -10 -1 -10 5 0 7 9 14 20 17 20
5 29 43 10 43 -5 0 -7 -7 -3 -17 5 -13 2 -15 -17 -10 -13 3 -30 1 -37 -5 -9
-7 -13 -7 -13 0 0 5 -8 8 -19 5 -15 -4 -18 -15 -19 -66 -2 -91 8 -100 116
-104 48 -1 101 2 117 7 38 12 76 14 140 6 l50 -6 -50 17 c-40 14 -45 18 -27
21 21 3 22 5 8 20 -12 14 -14 49 -13 201 2 137 5 185 15 188 7 3 12 -4 12 -16
0 -11 4 -22 8 -25 5 -3 6 8 4 25 -3 22 0 29 12 29 9 0 17 -6 17 -12 1 -7 3
-28 5 -46 4 -54 14 -50 14 6 0 29 5 52 10 52 6 0 10 -10 10 -22 0 -12 3 -18 8
-14 4 4 7 12 7 17 0 24 21 6 26 -23 6 -33 6 -33 8 -4 0 16 3 27 6 25 8 -9 21
-149 14 -149 -5 0 -5 -7 -2 -17 4 -11 3 -14 -5 -9 -7 4 -12 19 -13 34 -1 24
-2 23 -9 -8 -10 -40 -5 -51 15 -43 11 4 15 -3 15 -28 0 -31 1 -32 16 -13 15
18 15 18 9 -9 -4 -19 -2 -26 5 -22 5 3 10 0 10 -7 1 -7 14 2 29 20 16 19 32
29 35 24 4 -6 1 -14 -5 -18 -8 -5 -8 -8 0 -13 7 -5 1 -16 -16 -32 -20 -17 -23
-18 -10 -3 23 28 22 41 -2 20 -11 -10 -24 -15 -29 -12 -10 6 -42 -29 -42 -46
0 -6 8 -4 18 5 25 23 39 22 19 -1 -10 -11 -14 -27 -11 -42 l5 -25 -15 25 c-14
24 -15 24 -23 5 -7 -18 -8 -17 -14 10 l-7 30 -1 -35 c-1 -35 -15 -32 -24 5 -3
15 -5 13 -6 -8 -1 -37 -24 -31 -32 9 l-7 29 -1 -27 c0 -15 -6 -30 -11 -33 -25
-15 5 -27 55 -21 42 5 54 3 59 -9 3 -8 16 -15 28 -14 21 0 21 1 4 8 -18 7 -18
8 -2 14 27 11 86 8 86 -3 0 -5 -15 -10 -32 -10 l-33 -1 39 -14 c41 -14 280
-24 293 -12 3 4 2 7 -3 7 -5 0 -7 36 -4 85 3 46 2 95 -2 107 -6 23 -12 9 -9
-23 1 -8 -8 -24 -19 -34 -11 -10 -20 -24 -20 -32 0 -23 -51 -104 -61 -97 -6 3
-3 16 6 31 12 18 13 23 4 18 -8 -5 -11 -4 -6 1 5 5 14 9 20 9 17 0 18 52 1 66
-11 9 -18 9 -26 1 -7 -7 -18 -12 -26 -12 -9 0 -7 9 8 31 12 16 20 32 18 34 -2
2 -21 -21 -43 -51 -22 -30 -42 -49 -44 -43 -2 6 1 14 6 18 11 7 33 45 33 57 0
4 -9 -1 -19 -10 -26 -23 -35 -4 -12 25 10 13 21 35 24 49 6 24 5 24 -8 6 -8
-11 -15 -24 -15 -29 0 -4 -4 -5 -10 -2 -17 10 -11 35 16 71 15 19 22 34 16 34
-5 0 -17 -10 -26 -22 -14 -22 -15 -17 -12 69 2 50 6 96 10 101 3 6 0 12 -6 15
-8 2 -9 8 -4 13 5 5 11 4 13 -4 3 -6 9 -10 14 -6 5 3 9 0 9 -5 0 -6 -4 -11
-10 -11 -5 0 -10 -4 -10 -10 0 -19 15 -9 37 25 19 29 20 33 5 28 -12 -5 -9 4
12 33 22 28 24 34 8 20 -33 -28 -37 -13 -7 23 15 17 22 31 16 31 -6 0 -11 8
-11 17 0 12 -9 5 -27 -20 -15 -22 -29 -34 -31 -27 -2 6 3 19 12 29 9 10 16 22
16 27 0 5 -11 -4 -25 -21 -14 -16 -22 -22 -19 -12 6 15 -4 22 -28 18 -4 0 -4
7 -1 16 4 11 3 14 -5 9 -7 -4 -12 -1 -12 9 0 12 5 15 16 11 9 -3 25 -6 35 -6
13 0 18 -4 13 -12 -4 -7 -3 -8 5 -4 13 8 11 37 -4 48 -5 4 -18 -1 -29 -10 -18
-16 -19 -16 -13 3 6 15 1 14 -18 -8 -23 -25 -30 -27 -26 -4 0 4 -3 7 -7 7 -4
0 -8 9 -8 19 0 11 4 18 7 15 4 -2 10 0 14 6 3 5 -2 10 -12 10 -11 0 -28 7 -39
15 -10 8 -29 15 -40 15 -12 0 -33 12 -48 27 l-27 27 23 9 c13 4 48 7 78 5 l55
-3 5 158 c3 87 3 161 1 163 -2 2 -78 4 -168 4 -122 0 -165 -3 -168 -12z m307
-22 c4 -6 8 -71 8 -145 l0 -134 -100 6 c-55 2 -98 1 -95 -2 2 -4 -2 -8 -10 -8
-8 0 -15 6 -15 14 0 8 -12 13 -35 13 -34 0 -35 1 -36 43 -2 62 1 137 7 179 6
42 34 55 70 32 13 -9 28 -13 34 -9 5 3 13 -1 16 -9 3 -9 13 -16 22 -16 12 0
11 4 -6 21 -12 11 -27 17 -32 14 -6 -4 -16 0 -24 7 -11 11 3 13 88 10 60 -3
104 -9 108 -16z m-282 -410 c0 -3 -4 -8 -10 -11 -5 -3 -10 -1 -10 4 0 6 5 11
10 11 6 0 10 -2 10 -4z m353 -125 c55 -57 79 -99 36 -63 -33 28 -111 122 -101
122 5 0 34 -27 65 -59z m97 21 c0 -11 -22 -32 -32 -32 -5 0 -4 9 2 20 11 20
30 28 30 12z m-574 -141 c-4 -5 0 -12 6 -14 7 -3 2 -6 -11 -6 -20 -1 -21 1
-11 14 14 16 25 21 16 6z m50 0 c-3 -5 3 -11 14 -14 25 -6 27 -37 2 -37 -9 0
-23 10 -31 21 -11 18 -11 23 1 30 17 11 20 11 14 0z m334 -26 c0 -18 -5 -25
-20 -25 -25 0 -27 37 -2 43 9 3 18 5 20 6 1 0 2 -10 2 -24z m47 -93 c3 -115
-4 -134 -31 -84 -15 26 -15 26 -16 4 0 -17 -5 -23 -17 -20 -13 2 -18 13 -18
33 0 25 4 31 28 33 15 2 27 7 27 11 0 4 -13 6 -30 3 -29 -4 -30 -3 -30 38 0
37 2 41 23 40 44 -4 51 -1 37 15 -14 17 -5 48 13 43 8 -3 13 -38 14 -116z
m-299 91 c-5 -25 -28 -28 -28 -4 0 12 6 21 16 21 9 0 14 -7 12 -17z m350 -8
c0 -18 -6 -25 -19 -25 -19 0 -27 29 -12 43 14 15 31 6 31 -18z m-398 -79 c0
-54 12 -80 24 -51 3 8 1 15 -4 15 -6 0 -10 20 -10 45 0 38 3 45 20 45 19 0 20
-7 20 -90 0 -90 -11 -114 -30 -67 -7 18 -9 19 -9 4 -1 -13 -7 -17 -23 -15 -18
2 -23 10 -24 33 0 17 -3 35 -6 40 -3 6 -3 29 0 53 3 33 8 42 23 42 16 0 19 -8
19 -54z m395 34 c3 -5 -3 -10 -15 -10 -12 0 -18 5 -15 10 3 6 10 10 15 10 5 0
12 -4 15 -10z m-3 -42 c-9 -9 -15 -9 -24 0 -9 9 -7 12 12 12 19 0 21 -3 12
-12z m2 -34 c10 -25 7 -52 -6 -60 -7 -4 -10 -4 -6 1 4 4 0 13 -8 20 -11 8 -14
19 -10 33 9 26 21 28 30 6z m-448 -28 c3 -8 4 -23 1 -33 -4 -16 -6 -15 -12 5
-4 13 -16 22 -29 23 -20 0 -20 1 -1 9 29 12 35 12 41 -4z m-26 -91 c0 -61 -3
-75 -15 -75 -13 0 -15 13 -13 75 2 52 7 75 16 75 8 0 12 -22 12 -75z m480 10
c0 -40 -12 -46 -27 -12 -12 27 -7 47 13 47 9 0 14 -11 14 -35z m-378 -17 c-7
-7 -12 -8 -12 -2 0 6 3 14 7 17 3 4 9 5 12 2 2 -3 -1 -11 -7 -17z m-32 -9 c-7
-11 -14 -18 -17 -15 -3 3 0 12 7 21 18 21 23 19 10 -6z m50 -8 c-11 -21 -30
-37 -30 -25 0 8 30 44 37 44 2 0 -1 -9 -7 -19z m354 -17 c12 -5 16 -21 16 -63
1 -56 1 -56 16 -28 9 17 21 26 29 23 8 -3 17 -1 20 4 4 6 -1 10 -10 10 -9 0
-13 5 -10 10 4 6 12 10 18 9 30 -4 48 2 41 13 -4 7 -3 8 4 4 17 -10 15 -20
-15 -71 -27 -44 -56 -58 -66 -32 -4 7 -6 6 -6 -5 -1 -13 -5 -14 -24 -5 -40 19
-62 86 -29 88 16 1 16 2 0 6 -18 4 -24 24 -11 36 8 8 8 8 27 1z m-359 -33 c-3
-6 -11 -11 -17 -11 -6 0 -6 6 2 15 14 17 26 13 15 -4z m315 -1 c0 -5 -9 -14
-20 -20 -19 -10 -20 -10 -8 9 13 22 28 28 28 11z m-582 -12 c-2 -6 -10 -14
-16 -16 -7 -2 -10 2 -6 12 7 18 28 22 22 4z m811 -47 c-20 -17 -21 -20 -6 -21
24 0 22 -30 -2 -30 -23 0 -24 30 -2 69 9 16 16 20 24 12 7 -7 3 -16 -14 -30z
m-547 7 c-7 -7 -12 -8 -12 -2 0 6 3 14 7 17 3 4 9 5 12 2 2 -3 -1 -11 -7 -17z
m314 -5 c-10 -10 -19 5 -10 18 6 11 8 11 12 0 2 -7 1 -15 -2 -18z"/>
<path d="M3344 4019 c-3 -6 -1 -16 5 -22 9 -9 14 -8 21 3 5 8 10 18 10 23 0
11 -28 8 -36 -4z"/>
<path d="M3480 4024 c0 -13 18 -39 24 -34 2 3 -2 14 -10 24 -8 11 -14 16 -14
10z"/>
<path d="M3450 3976 c0 -2 7 -9 15 -16 9 -7 15 -8 15 -2 0 5 -7 12 -15 16 -8
3 -15 4 -15 2z"/>
<path d="M3510 3966 c0 -9 -4 -16 -10 -16 -5 0 -10 -4 -10 -10 0 -5 10 -8 23
-6 24 3 31 36 10 44 -7 2 -13 -3 -13 -12z"/>
<path d="M3346 3935 c-3 -8 -1 -15 4 -15 6 0 10 7 10 15 0 8 -2 15 -4 15 -2 0
-6 -7 -10 -15z"/>
<path d="M3418 3938 c6 -6 18 -8 28 -6 14 3 12 5 -9 10 -19 3 -25 2 -19 -4z"/>
<path d="M3478 3906 c-15 -6 -34 -20 -41 -30 -12 -16 -14 -16 -27 8 -7 14 -20
26 -29 26 -14 -1 -13 -2 2 -11 9 -5 17 -16 17 -24 0 -8 9 -19 19 -25 26 -14
29 -13 27 8 0 10 6 16 17 16 9 -1 17 4 17 11 0 7 12 18 28 23 15 6 20 10 12
10 -8 0 -27 -5 -42 -12z"/>
<path d="M3520 3875 c0 -9 -6 -12 -16 -8 -14 5 -14 3 -3 -15 7 -12 11 -23 9
-25 -3 -2 -31 -7 -62 -11 l-58 -6 0 29 c0 17 -5 33 -10 36 -13 8 -40 -19 -40
-38 0 -39 12 -47 66 -47 30 0 54 5 54 10 0 6 12 10 28 10 21 0 24 -2 12 -10
-11 -7 -2 -10 33 -10 27 0 47 5 47 11 0 6 -8 8 -18 5 -13 -5 -22 1 -30 19 -10
21 -9 26 10 36 16 9 18 13 7 20 -20 13 -29 11 -29 -6z m-140 -25 c0 -5 -7 -10
-16 -10 -8 0 -12 5 -9 10 3 6 10 10 16 10 5 0 9 -4 9 -10z"/>
<path d="M3560 3851 c0 -5 5 -13 10 -16 6 -3 10 -2 10 4 0 5 -4 13 -10 16 -5
3 -10 2 -10 -4z"/>
<path d="M2152 4020 c-11 -22 -17 -42 -12 -45 5 -3 11 8 15 25 8 37 29 41 22
4 -5 -29 4 -21 21 18 10 23 9 26 -5 21 -11 -4 -14 -3 -9 5 4 7 3 12 -2 12 -4
0 -18 -18 -30 -40z"/>
<path d="M2940 4050 c0 -5 5 -10 10 -10 6 0 10 5 10 10 0 6 -4 10 -10 10 -5 0
-10 -4 -10 -10z"/>
<path d="M2113 4013 c-14 -29 -9 -43 8 -26 6 6 9 20 7 32 -3 19 -4 19 -15 -6z"/>
<path d="M3841 4024 c0 -11 3 -14 6 -6 3 7 2 16 -1 19 -3 4 -6 -2 -5 -13z"/>
<path d="M2206 4015 c-3 -8 -1 -15 4 -15 6 0 10 7 10 15 0 8 -2 15 -4 15 -2 0
-6 -7 -10 -15z"/>
<path d="M2490 4018 c0 -12 7 -18 23 -17 15 0 17 2 7 6 -8 3 -18 11 -22 17 -5
7 -8 4 -8 -6z"/>
<path d="M3928 3975 c-5 -83 7 -112 14 -32 3 37 8 71 11 74 3 3 51 2 105 -2
l100 -7 1 -78 c1 -44 -3 -82 -9 -85 -5 -3 -10 -1 -10 4 0 11 -42 15 -52 5 -3
-3 -3 -14 0 -26 4 -16 10 -19 33 -14 22 4 29 2 29 -9 0 -10 -10 -15 -30 -15
-23 0 -30 -4 -30 -20 0 -26 37 -27 56 -2 12 15 13 16 14 0 0 -9 3 -23 6 -32 5
-14 -8 -16 -110 -16 -104 0 -116 2 -116 18 0 11 -5 8 -15 -12 -8 -15 -13 -32
-10 -36 3 -5 1 -10 -5 -12 -6 -1 49 -2 122 0 73 1 139 5 145 7 9 3 11 18 6 50
-5 40 -3 45 13 45 18 1 18 1 0 15 -20 15 -20 15 0 16 16 0 16 2 -4 10 -20 8
-23 15 -20 51 2 24 8 46 13 50 6 5 5 8 -2 8 -8 0 -13 14 -13 34 0 66 -1 66
-125 66 l-113 0 -4 -55z m248 -273 c-7 -11 -246 -16 -246 -4 0 4 57 8 126 10
80 2 124 0 120 -6z"/>
<path d="M2548 4013 c7 -3 16 -2 19 1 4 3 -2 6 -13 5 -11 0 -14 -3 -6 -6z"/>
<path d="M2627 3996 c-4 -10 4 -15 26 -19 37 -5 42 -3 34 18 -8 19 -53 20 -60
1z"/>
<path d="M4432 3975 c4 -36 31 -41 36 -7 4 26 22 30 22 4 0 -10 3 -21 6 -25
12 -11 34 6 34 27 0 20 1 19 13 -4 18 -35 51 -33 55 3 3 25 1 27 -35 28 -21 0
-60 1 -86 2 -48 2 -48 2 -45 -28z"/>
<path d="M2804 3975 c-4 -15 -2 -31 4 -37 17 -17 42 -1 43 29 l1 28 7 -30 c8
-37 46 -44 45 -7 0 12 5 22 13 22 7 0 13 -11 13 -25 0 -16 6 -25 15 -25 8 0
15 -7 15 -15 0 -9 -6 -12 -15 -9 -22 9 -20 -42 3 -55 16 -10 15 -12 -7 -30
-23 -18 -23 -19 -5 -30 18 -10 18 -12 2 -21 -10 -6 -18 -17 -18 -24 0 -16 30
-30 41 -19 4 4 9 65 11 136 l3 127 -45 0 c-25 0 -62 3 -82 6 -34 6 -38 4 -44
-21z"/>
<path d="M3967 3988 c-12 -37 26 -67 40 -32 5 15 7 15 15 0 5 -9 18 -16 28
-16 15 0 20 7 20 26 0 14 4 23 10 19 6 -3 10 -15 10 -26 0 -15 6 -20 23 -17
28 4 38 47 10 49 -10 1 -48 3 -85 5 -47 3 -68 1 -71 -8z"/>
<path d="M4744 3988 c-4 -7 -4 -10 1 -6 4 4 15 2 24 -5 14 -11 14 -10 2 6 -16
20 -18 21 -27 5z"/>
<path d="M2037 3959 c7 -7 15 -10 18 -7 3 3 -2 9 -12 12 -14 6 -15 5 -6 -5z"/>
<path d="M2098 3948 c-13 -13 -27 -22 -33 -20 -5 2 -5 -2 2 -9 6 -6 19 -9 29
-5 9 4 14 9 10 13 -3 3 1 15 11 25 23 26 7 22 -19 -4z"/>
<path d="M4663 3963 c-7 -3 -13 -9 -13 -13 0 -11 66 -7 77 4 5 4 -1 7 -12 5
-11 -2 -24 -1 -30 2 -5 4 -16 4 -22 2z"/>
<path d="M4745 3950 c4 -6 11 -8 16 -5 14 9 11 15 -7 15 -8 0 -12 -5 -9 -10z"/>
<path d="M2551 3924 c0 -11 3 -14 6 -6 3 7 2 16 -1 19 -3 4 -6 -2 -5 -13z"/>
<path d="M4624 3860 c2 -47 0 -98 -2 -113 l-5 -29 -96 7 c-52 3 -99 9 -103 11
-4 3 -8 24 -8 46 0 23 -3 38 -7 34 -4 -3 -6 -24 -5 -46 2 -22 -1 -40 -7 -40
-15 0 -22 -30 -11 -51 6 -11 20 -18 33 -18 17 1 18 2 5 6 -24 6 -23 23 2 23
10 0 24 -8 29 -17 10 -17 10 -17 11 0 0 12 8 17 29 17 32 0 50 -15 29 -23 -8
-3 -6 -6 5 -6 9 -1 17 4 17 9 0 6 28 11 63 12 l62 1 -65 7 c-36 4 -94 8 -129
9 -35 0 -61 4 -57 8 6 6 130 6 214 -1 17 -1 32 1 32 6 0 4 -5 8 -10 8 -7 0
-10 35 -9 94 1 52 -3 102 -9 112 -7 13 -9 -5 -8 -66z"/>
<path d="M5050 3930 c0 -5 5 -10 10 -10 6 0 10 5 10 10 0 6 -4 10 -10 10 -5 0
-10 -4 -10 -10z"/>
<path d="M4355 3920 c3 -5 8 -10 11 -10 2 0 4 5 4 10 0 6 -5 10 -11 10 -5 0
-7 -4 -4 -10z"/>
<path d="M4486 3913 c-9 -22 5 -34 31 -27 19 5 21 10 12 25 -12 23 -35 25 -43
2z"/>
<path d="M4702 3921 c2 -7 7 -12 11 -12 12 1 9 15 -3 20 -7 2 -11 -2 -8 -8z"/>
<path d="M3964 3905 c-3 -8 -3 -19 1 -25 9 -14 45 6 45 25 0 19 -39 19 -46 0z"/>
<path d="M4027 3913 c-16 -15 -6 -34 15 -31 29 4 38 38 10 38 -10 0 -22 -3
-25 -7z"/>
<path d="M4092 3903 c2 -10 13 -19 26 -21 17 -3 22 2 22 17 0 16 -6 21 -26 21
-19 0 -25 -5 -22 -17z"/>
<path d="M4432 3903 c4 -21 33 -25 33 -3 0 8 -8 16 -18 18 -14 3 -18 -1 -15
-15z"/>
<path d="M4550 3900 c0 -13 7 -20 18 -20 26 0 34 11 21 27 -17 20 -39 16 -39
-7z"/>
<path d="M4650 3910 c0 -5 5 -10 10 -10 6 0 10 5 10 10 0 6 -4 10 -10 10 -5 0
-10 -4 -10 -10z"/>
<path d="M2046 3893 c-6 -14 -5 -15 5 -6 7 7 10 15 7 18 -3 3 -9 -2 -12 -12z"/>
<path d="M2470 3906 c0 -2 7 -6 15 -10 8 -3 15 -1 15 4 0 6 -7 10 -15 10 -8 0
-15 -2 -15 -4z"/>
<path d="M2807 3903 c-4 -3 -7 -15 -7 -25 0 -29 44 -20 48 10 3 16 -2 22 -16
22 -10 0 -22 -3 -25 -7z"/>
<path d="M2860 3885 c0 -18 5 -25 18 -25 25 0 31 7 25 31 -8 29 -43 25 -43 -6z"/>
<path d="M5027 3903 c-10 -9 -9 -23 1 -23 5 0 9 7 9 15 0 17 -1 18 -10 8z"/>
<path d="M2087 3893 c-4 -3 -7 -11 -7 -17 0 -6 5 -5 12 2 6 6 9 14 7 17 -3 3
-9 2 -12 -2z"/>
<path d="M2989 3863 c-1 -21 -1 -64 0 -95 l2 -58 -88 1 c-48 0 -82 3 -75 6 6
2 12 16 12 30 0 18 -5 24 -17 21 -13 -2 -17 -12 -16 -31 1 -18 -3 -27 -12 -27
-17 0 -19 12 -16 91 3 53 2 57 -23 61 -32 6 -35 -7 -3 -17 l22 -7 -25 -8 c-17
-5 -19 -8 -7 -9 25 -1 21 -19 -5 -24 -23 -4 -23 -4 0 -6 22 -1 24 -4 20 -53
l-3 -53 115 -6 c63 -4 118 -5 123 -2 4 2 7 22 7 43 0 32 4 39 23 43 l22 4 -22
2 c-19 1 -23 7 -23 36 0 29 4 35 23 36 16 1 18 2 5 6 -10 2 -18 11 -18 19 0 8
8 14 18 15 14 0 14 2 -3 9 -32 14 -35 12 -36 -27z m-9 -171 c0 -5 -42 -7 -92
-5 -133 6 -140 10 -15 12 59 0 107 -3 107 -7z"/>
<path d="M4695 3880 l-40 -7 43 -2 c23 0 42 4 42 9 0 6 -1 9 -2 9 -2 -1 -21
-5 -43 -9z"/>
<path d="M4230 3870 c0 -12 8 -12 35 0 18 8 17 9 -7 9 -16 1 -28 -3 -28 -9z"/>
<path d="M2453 3855 c-6 -6 -7 -18 -3 -25 6 -9 10 -7 15 9 8 27 4 33 -12 16z"/>
<path d="M3273 3805 c0 -38 2 -53 4 -32 2 20 2 52 0 70 -2 17 -4 1 -4 -38z"/>
<path d="M3930 3827 c0 -20 4 -37 10 -37 5 0 7 14 3 33 -8 45 -13 47 -13 4z"/>
<path d="M3972 3838 c2 -13 10 -23 18 -23 8 0 16 10 18 23 3 17 -2 22 -18 22
-16 0 -21 -5 -18 -22z"/>
<path d="M4024 3845 c-8 -20 4 -35 27 -35 14 0 19 7 19 25 0 18 -5 25 -20 25
-11 0 -23 -7 -26 -15z"/>
<path d="M2080 3840 c0 -5 5 -10 10 -10 6 0 10 5 10 10 0 6 -4 10 -10 10 -5 0
-10 -4 -10 -10z"/>
<path d="M2638 3843 c7 -3 16 -2 19 1 4 3 -2 6 -13 5 -11 0 -14 -3 -6 -6z"/>
<path d="M3060 3846 c0 -2 7 -9 15 -16 9 -7 15 -8 15 -2 0 5 -7 12 -15 16 -8
3 -15 4 -15 2z"/>
<path d="M4426 3841 c-3 -5 1 -15 10 -22 13 -10 17 -10 24 1 5 8 6 18 4 22 -7
11 -31 10 -38 -1z"/>
<path d="M4485 3840 c-9 -15 4 -30 26 -30 12 0 19 7 19 20 0 21 -33 29 -45 10z"/>
<path d="M4550 3835 c0 -21 30 -31 40 -14 11 17 3 29 -21 29 -10 0 -19 -7 -19
-15z"/>
<path d="M4705 3840 c3 -5 8 -10 11 -10 2 0 4 5 4 10 0 6 -5 10 -11 10 -5 0
-7 -4 -4 -10z"/>
<path d="M4763 3833 c9 -2 23 -2 30 0 6 3 -1 5 -18 5 -16 0 -22 -2 -12 -5z"/>
<path d="M2060 3820 c0 -13 18 -22 24 -11 3 5 -1 11 -9 15 -8 3 -15 1 -15 -4z"/>
<path d="M2800 3811 c0 -22 29 -36 43 -22 15 15 0 41 -23 41 -13 0 -20 -7 -20
-19z"/>
<path d="M2865 3820 c-4 -7 -3 -16 3 -22 14 -14 45 -2 40 15 -6 16 -34 21 -43
7z"/>
<path d="M2389 3815 c-4 -8 -4 -43 0 -87 1 -5 5 -8 11 -8 5 0 7 7 4 15 -4 10
0 15 12 15 16 0 16 1 2 13 -9 6 -18 23 -20 37 -2 14 -6 21 -9 15z"/>
<path d="M4230 3808 c0 -18 45 -36 57 -24 4 3 -3 6 -15 6 -11 0 -26 8 -31 18
-10 16 -10 16 -11 0z"/>
<path d="M3977 3783 c-14 -13 -6 -33 13 -33 13 0 20 7 20 20 0 19 -20 27 -33
13z"/>
<path d="M4025 3780 c-9 -15 4 -30 26 -30 12 0 19 7 19 20 0 21 -33 29 -45 10z"/>
<path d="M4436 3781 c-9 -14 4 -41 21 -41 9 0 13 8 11 22 -3 23 -23 35 -32 19z"/>
<path d="M4658 3783 c6 -2 18 -2 25 0 6 3 1 5 -13 5 -14 0 -19 -2 -12 -5z"/>
<path d="M4490 3770 c0 -12 35 -31 44 -23 15 15 4 33 -19 33 -14 0 -25 -4 -25
-10z"/>
<path d="M4550 3771 c0 -5 7 -14 16 -22 13 -10 17 -10 24 1 5 8 6 18 4 22 -7
11 -44 10 -44 -1z"/>
<path d="M2860 3750 c0 -14 7 -20 24 -20 19 0 23 4 19 20 -3 11 -14 20 -24 20
-12 0 -19 -7 -19 -20z"/>
<path d="M2470 3720 c0 -5 5 -10 11 -10 5 0 7 5 4 10 -3 6 -8 10 -11 10 -2 0
-4 -4 -4 -10z"/>
<path d="M2317 3699 c4 -13 9 -17 15 -11 11 11 3 32 -12 32 -4 0 -6 -9 -3 -21z"/>
<path d="M3125 3710 c-3 -5 -2 -10 4 -10 5 0 13 5 16 10 3 6 2 10 -4 10 -5 0
-13 -4 -16 -10z"/>
<path d="M3168 3713 c7 -3 16 -2 19 1 4 3 -2 6 -13 5 -11 0 -14 -3 -6 -6z"/>
<path d="M2265 3700 c3 -5 11 -10 16 -10 6 0 7 5 4 10 -3 6 -11 10 -16 10 -6
0 -7 -4 -4 -10z"/>
<path d="M2373 3703 c11 -3 16 -11 13 -21 -6 -18 -6 -51 -3 -151 2 -55 -1 -65
-18 -72 -16 -6 -17 -8 -3 -8 22 -1 30 13 35 63 2 23 8 43 14 45 8 2 7 6 -1 11
-9 5 -13 31 -12 74 1 62 -1 66 -21 65 -18 -1 -18 -2 -4 -6z"/>
<path d="M3088 3693 c7 -3 16 -2 19 1 4 3 -2 6 -13 5 -11 0 -14 -3 -6 -6z"/>
<path d="M2455 3680 c3 -5 8 -10 11 -10 2 0 4 5 4 10 0 6 -5 10 -11 10 -5 0
-7 -4 -4 -10z"/>
<path d="M2490 3686 c0 -2 14 -6 30 -8 17 -3 30 -1 30 4 0 4 -13 8 -30 8 -16
0 -30 -2 -30 -4z"/>
<path d="M3036 3665 c-3 -8 -1 -15 4 -15 6 0 10 7 10 15 0 8 -2 15 -4 15 -2 0
-6 -7 -10 -15z"/>
<path d="M3361 3636 c-31 -31 -41 -49 -37 -63 8 -24 75 -93 91 -93 15 0 61 58
74 93 8 21 4 30 -33 66 -23 22 -44 41 -47 41 -3 0 -24 -20 -48 -44z m92 -72
c-9 -15 -19 -22 -21 -15 -2 6 -8 8 -14 5 -6 -4 -5 2 1 15 14 25 26 28 17 4 -5
-16 -4 -15 9 1 22 29 6 41 -21 15 -13 -12 -24 -17 -24 -11 0 7 0 15 0 20 0 4
4 7 10 7 5 0 15 6 21 12 10 10 15 8 26 -7 12 -17 11 -23 -4 -46z m-23 -55 c-7
-11 -14 -18 -17 -15 -8 8 5 36 17 36 7 0 7 -6 0 -21z"/>
<path d="M4905 3670 c3 -5 8 -10 11 -10 2 0 4 5 4 10 0 6 -5 10 -11 10 -5 0
-7 -4 -4 -10z"/>
<path d="M5110 3642 c0 -23 4 -42 9 -42 6 0 7 17 4 38 -8 51 -13 53 -13 4z"/>
<path d="M2222 3654 c9 -9 21 -15 27 -13 6 2 -2 10 -17 17 -25 11 -25 11 -10
-4z"/>
<path d="M4750 3649 c0 -5 9 -9 20 -9 11 0 20 2 20 4 0 2 -9 6 -20 9 -11 3
-20 1 -20 -4z"/>
<path d="M2603 3643 c9 -2 25 -2 35 0 9 3 1 5 -18 5 -19 0 -27 -2 -17 -5z"/>
<path d="M3755 3640 c4 -6 11 -8 16 -5 14 9 11 15 -7 15 -8 0 -12 -5 -9 -10z"/>
<path d="M3968 3643 c7 -3 16 -2 19 1 4 3 -2 6 -13 5 -11 0 -14 -3 -6 -6z"/>
<path d="M4195 3640 c-3 -5 1 -10 9 -10 9 0 16 5 16 10 0 6 -4 10 -9 10 -6 0
-13 -4 -16 -10z"/>
<path d="M4415 3640 c27 -12 43 -12 25 0 -8 5 -22 9 -30 9 -10 0 -8 -3 5 -9z"/>
<path d="M4488 3643 c6 -2 18 -2 25 0 6 3 1 5 -13 5 -14 0 -19 -2 -12 -5z"/>
<path d="M4638 3643 c12 -2 30 -2 40 0 9 3 -1 5 -23 4 -22 0 -30 -2 -17 -4z"/>
<path d="M2270 3632 c0 -15 11 -21 27 -15 12 5 12 7 1 14 -17 11 -28 11 -28 1z"/>
<path d="M4040 3629 c0 -6 -9 -9 -20 -6 -11 3 -23 1 -26 -4 -3 -5 22 -9 55 -9
38 0 61 4 61 11 0 6 -7 8 -16 5 -8 -3 -24 -1 -35 4 -14 8 -19 7 -19 -1z"/>
<path d="M2796 3617 c3 -10 9 -15 12 -12 3 3 0 11 -7 18 -10 9 -11 8 -5 -6z"/>
<path d="M3898 3613 c7 -3 16 -2 19 1 4 3 -2 6 -13 5 -11 0 -14 -3 -6 -6z"/>
<path d="M4198 3613 c12 -2 30 -2 40 0 9 3 -1 5 -23 4 -22 0 -30 -2 -17 -4z"/>
<path d="M2498 3603 c7 -3 16 -2 19 1 4 3 -2 6 -13 5 -11 0 -14 -3 -6 -6z"/>
<path d="M4650 3585 c0 -8 9 -10 25 -7 14 2 25 6 25 7 0 1 -11 5 -25 7 -16 3
-25 1 -25 -7z"/>
<path d="M4865 3590 c-3 -5 -1 -10 4 -10 6 0 11 5 11 10 0 6 -2 10 -4 10 -3 0
-8 -4 -11 -10z"/>
<path d="M3162 3510 c-40 -44 -71 -84 -67 -90 9 -14 25 -12 20 3 -3 6 27 47
66 90 39 42 67 77 62 77 -4 0 -41 -36 -81 -80z"/>
<path d="M3958 3583 c6 -2 18 -2 25 0 6 3 1 5 -13 5 -14 0 -19 -2 -12 -5z"/>
<path d="M4736 3575 c4 -8 7 -15 9 -15 1 0 8 7 15 15 10 13 9 15 -8 15 -15 0
-20 -5 -16 -15z"/>
<path d="M4795 3580 c3 -5 12 -7 20 -3 21 7 19 13 -6 13 -11 0 -18 -4 -14 -10z"/>
<path d="M2550 3559 c0 -5 5 -7 10 -4 6 3 10 8 10 11 0 2 -4 4 -10 4 -5 0 -10
-5 -10 -11z"/>
<path d="M3498 3552 c-22 -25 -38 -58 -38 -80 0 -16 9 -19 75 -20 96 -2 106
13 45 66 -60 52 -65 54 -82 34z m61 -41 c9 -6 10 -11 2 -15 -6 -4 -11 -2 -11
5 0 8 -4 8 -15 -1 -13 -11 -14 -10 -9 4 7 18 13 19 33 7z"/>
<path d="M4630 3539 c-7 -11 -10 -23 -7 -25 2 -2 9 7 15 21 14 30 7 33 -8 4z"/>
<path d="M5120 3539 c0 -11 5 -17 10 -14 6 3 10 13 10 21 0 8 -4 14 -10 14 -5
0 -10 -9 -10 -21z"/>
<path d="M2926 3533 c-6 -14 -5 -15 5 -6 7 7 10 15 7 18 -3 3 -9 -2 -12 -12z"/>
<path d="M4410 3538 c0 -11 -5 -15 -15 -12 -8 4 -15 1 -15 -5 0 -6 11 -10 25
-9 28 3 29 6 15 28 -8 13 -10 13 -10 -2z"/>
<path d="M4441 3534 c0 -11 3 -14 6 -6 3 7 2 16 -1 19 -3 4 -6 -2 -5 -13z"/>
<path d="M4466 3526 c5 -22 2 -25 -28 -28 l-33 -3 -5 -130 c-3 -75 -1 -136 5
-143 6 -10 4 -17 -9 -24 -13 -7 -17 -19 -14 -46 2 -30 8 -38 28 -43 14 -3 24
-10 22 -17 -2 -14 35 -17 40 -3 2 5 35 11 73 13 62 3 70 1 67 -14 -2 -10 2
-18 8 -18 5 0 10 6 10 13 0 8 4 7 10 -3 8 -12 10 -11 10 7 0 12 8 27 18 32 22
13 21 13 -135 11 -118 -2 -133 0 -133 15 0 9 6 22 13 30 15 14 65 23 82 14 6
-3 33 -4 62 -1 42 3 52 8 57 25 3 12 1 26 -4 31 -14 14 -40 -1 -40 -24 0 -14
-6 -20 -22 -19 -17 1 -19 2 -5 6 10 3 17 14 17 28 0 21 -3 23 -22 16 -13 -4
-25 -19 -28 -32 -6 -24 -6 -24 -13 4 -7 27 -30 36 -42 17 -4 -6 -1 -17 5 -25
10 -13 8 -15 -14 -15 l-26 0 0 145 0 145 105 0 104 0 5 -32 c6 -38 5 -32 12
-160 6 -93 15 -122 27 -78 3 11 1 23 -4 26 -16 9 -10 24 14 34 l22 9 -22 0
c-13 1 -23 7 -23 15 0 8 10 17 23 19 l22 4 -22 2 c-13 0 -23 6 -23 11 0 6 10
10 23 11 14 0 17 2 7 6 -28 10 -40 37 -40 90 l0 53 -85 0 c-84 0 -85 0 -85 25
0 14 -5 25 -10 25 -6 0 -8 -10 -4 -24z"/>
<path d="M4500 3538 c0 -9 5 -20 10 -23 13 -8 13 5 0 25 -8 13 -10 13 -10 -2z"/>
<path d="M4541 3534 c0 -11 3 -14 6 -6 3 7 2 16 -1 19 -3 4 -6 -2 -5 -13z"/>
<path d="M4571 3534 c0 -11 3 -14 6 -6 3 7 2 16 -1 19 -3 4 -6 -2 -5 -13z"/>
<path d="M4602 3530 c0 -14 2 -19 5 -12 2 6 2 18 0 25 -3 6 -5 1 -5 -13z"/>
<path d="M2448 3533 c7 -3 16 -2 19 1 4 3 -2 6 -13 5 -11 0 -14 -3 -6 -6z"/>
<path d="M2510 3529 c0 -5 5 -7 10 -4 6 3 10 8 10 11 0 2 -4 4 -10 4 -5 0 -10
-5 -10 -11z"/>
<path d="M2970 3536 c0 -2 7 -6 15 -10 8 -3 15 -1 15 4 0 6 -7 10 -15 10 -8 0
-15 -2 -15 -4z"/>
<path d="M3966 3514 c5 -19 4 -25 -5 -20 -6 4 -11 14 -11 22 0 8 -4 14 -9 14
-4 0 -6 -11 -4 -25 5 -24 7 -24 117 -27 l111 -3 -2 -135 c-1 -82 -6 -136 -13
-138 -5 -2 -10 8 -10 21 0 23 -4 25 -45 25 -40 0 -47 -3 -60 -29 -20 -37 -26
-37 -18 1 4 24 2 30 -11 30 -9 0 -19 -7 -22 -15 -4 -8 -13 -15 -21 -15 -15 0
-33 -17 -53 -52 -8 -14 -7 -16 5 -12 10 4 15 0 15 -14 0 -11 -6 -22 -12 -25
-17 -5 130 -16 269 -19 79 -2 116 1 125 10 8 8 9 12 1 12 -7 0 -14 -4 -17 -8
-2 -4 -22 -6 -43 -4 l-39 4 1 59 c0 45 4 59 15 60 8 0 2 6 -14 13 -20 9 -25
15 -15 19 11 4 11 6 -2 6 -12 1 -16 12 -17 44 -2 48 5 63 33 70 18 4 18 5 -2
6 -13 1 -23 7 -23 16 0 9 9 15 23 16 21 0 21 1 2 9 -14 6 -15 9 -5 10 9 1 6 5
-8 11 -19 7 -23 15 -21 43 2 19 0 38 -4 42 -4 4 -7 -2 -7 -14 0 -12 -5 -22
-11 -22 -6 0 -9 9 -6 20 3 12 0 20 -8 20 -7 0 -12 -7 -11 -16 0 -9 -5 -19 -13
-22 -10 -3 -12 1 -8 17 4 18 1 21 -24 21 -23 0 -27 -3 -22 -17 4 -11 8 -12 11
-5 5 17 22 15 22 -3 0 -11 -12 -15 -45 -15 -38 0 -45 3 -45 20 0 11 -4 20 -9
20 -5 0 -7 -9 -4 -20 3 -11 0 -20 -6 -20 -6 0 -11 6 -11 14 0 8 -5 18 -10 21
-7 4 -8 -3 -4 -21z m134 -306 c0 -5 -7 -8 -15 -8 -15 0 -20 21 -8 33 7 7 23
-11 23 -25z m100 -59 l0 -28 -117 4 c-65 2 -124 5 -130 5 -7 0 -13 11 -13 25
l0 26 130 -2 130 -1 0 -29z"/>
<path d="M4650 3525 c0 -9 5 -15 11 -13 6 2 11 8 11 13 0 5 -5 11 -11 13 -6 2
-11 -4 -11 -13z"/>
<path d="M4715 3529 c-4 -6 -4 -13 -1 -16 3 -4 6 -1 6 6 0 9 10 12 30 9 17 -3
30 -1 30 4 0 12 -58 10 -65 -3z"/>
<path d="M4030 3520 c0 -5 5 -10 11 -10 5 0 7 5 4 10 -3 6 -8 10 -11 10 -2 0
-4 -4 -4 -10z"/>
<path d="M2575 3510 c3 -5 8 -10 11 -10 2 0 4 5 4 10 0 6 -5 10 -11 10 -5 0
-7 -4 -4 -10z"/>
<path d="M4205 3510 c-3 -5 -1 -10 4 -10 6 0 11 5 11 10 0 6 -2 10 -4 10 -3 0
-8 -4 -11 -10z"/>
<path d="M2308 3503 c7 -3 16 -2 19 1 4 3 -2 6 -13 5 -11 0 -14 -3 -6 -6z"/>
<path d="M2906 3502 c-3 -6 -3 -17 0 -26 4 -11 1 -16 -11 -16 -11 0 -15 5 -11
15 3 8 0 15 -7 16 -50 3 -147 4 -147 2 0 -2 6 -12 13 -23 10 -17 9 -22 -3 -30
-9 -6 -10 -10 -3 -10 6 0 14 -8 16 -17 4 -14 5 -12 6 5 1 18 7 22 33 22 30 0
31 0 13 20 -17 18 -17 20 -1 20 9 0 19 -6 22 -14 4 -9 29 -17 74 -21 68 -7 69
-7 72 -38 2 -18 2 -78 0 -134 -3 -81 -6 -103 -17 -103 -11 0 -12 6 -5 25 8 22
7 25 -11 25 -12 0 -23 -8 -26 -20 -6 -23 -23 -27 -23 -6 0 8 -7 17 -16 20 -23
9 -24 8 -24 -14 0 -11 -4 -20 -10 -20 -5 0 -10 7 -10 15 0 23 -37 18 -54 -7
-15 -21 -16 -16 -17 77 -1 55 -3 92 -6 83 -2 -10 -14 -18 -26 -18 -22 -1 -22
-1 -2 -13 20 -12 26 -42 12 -65 -5 -6 -4 -12 1 -12 19 0 11 -60 -10 -74 -14
-10 -18 -20 -13 -33 6 -15 8 -16 14 -3 5 13 30 17 134 19 70 1 127 0 127 -4 0
-3 -7 -13 -15 -22 -11 -11 -27 -13 -59 -9 -24 4 -54 2 -67 -2 -13 -5 -37 -5
-53 -1 -16 5 -48 6 -70 2 l-41 -7 45 -7 c25 -4 93 -8 151 -8 90 -1 108 2 122
17 21 23 22 51 2 58 -8 4 -15 13 -15 21 0 11 7 14 25 11 14 -3 28 -1 31 3 3 5
-8 9 -24 9 -22 0 -31 6 -36 23 -9 34 -8 37 14 37 26 0 26 26 0 33 -14 3 -18
10 -14 22 4 9 12 14 19 11 6 -2 18 0 26 5 10 6 7 9 -12 9 -22 0 -28 6 -33 31
-3 17 -1 39 4 49 14 25 -4 69 -27 68 -10 0 -25 2 -34 6 -10 4 -20 3 -23 -2z
m34 -27 c0 -8 -4 -15 -10 -15 -5 0 -10 7 -10 15 0 8 5 15 10 15 6 0 10 -7 10
-15z m39 -24 c-16 -5 -33 15 -24 30 6 9 12 7 22 -7 9 -13 10 -20 2 -23z m-195
14 c3 -8 2 -15 -3 -15 -5 0 -14 7 -21 15 -10 12 -10 15 3 15 8 0 17 -7 21 -15z
m86 5 c0 -5 -7 -10 -15 -10 -8 0 -15 5 -15 10 0 6 7 10 15 10 8 0 15 -4 15
-10z m137 -186 c-3 -3 -12 -4 -19 -1 -8 3 -5 6 6 6 11 1 17 -2 13 -5z m-174
-121 c-7 -2 -19 -2 -25 0 -7 3 -2 5 12 5 14 0 19 -2 13 -5z"/>
<path d="M5125 3500 c-3 -5 -1 -10 4 -10 6 0 11 5 11 10 0 6 -2 10 -4 10 -3 0
-8 -4 -11 -10z"/>
<path d="M2498 3483 c7 -3 16 -2 19 1 4 3 -2 6 -13 5 -11 0 -14 -3 -6 -6z"/>
<path d="M3900 3466 c0 -8 7 -17 16 -20 23 -9 34 -7 34 4 0 5 -7 7 -15 4 -9
-4 -15 0 -15 10 0 9 -4 16 -10 16 -5 0 -10 -6 -10 -14z"/>
<path d="M4584 3471 c3 -5 -1 -12 -10 -15 -26 -10 -12 -41 19 -41 23 -1 27 3
27 26 0 15 -7 29 -16 33 -21 8 -26 8 -20 -3z"/>
<path d="M3979 3454 c-6 -7 -9 -21 -5 -29 8 -22 35 -18 46 8 6 16 9 17 9 5 1
-21 15 -30 36 -22 9 4 15 15 13 28 -2 17 -10 21 -45 23 -26 1 -47 -4 -54 -13z"/>
<path d="M4097 3464 c-2 -3 -2 -16 1 -29 3 -18 11 -25 28 -25 20 0 24 5 24 29
0 24 -4 29 -25 29 -13 0 -26 -2 -28 -4z"/>
<path d="M4440 3439 c0 -24 3 -30 16 -25 9 3 20 6 24 6 5 0 7 9 5 20 -2 12 2
20 9 20 9 0 12 -9 8 -25 -3 -17 0 -25 10 -25 22 0 36 20 31 41 -4 15 -14 19
-54 19 -48 0 -49 -1 -49 -31z"/>
<path d="M4788 3453 c7 -3 16 -2 19 1 4 3 -2 6 -13 5 -11 0 -14 -3 -6 -6z"/>
<path d="M5230 3445 c0 -8 4 -15 10 -15 5 0 7 7 4 15 -4 8 -8 15 -10 15 -2 0
-4 -7 -4 -15z"/>
<path d="M2418 3443 c6 -2 18 -2 25 0 6 3 1 5 -13 5 -14 0 -19 -2 -12 -5z"/>
<path d="M2223 3422 c0 -12 5 -22 9 -22 11 0 10 12 -2 30 -7 12 -9 10 -7 -8z"/>
<path d="M2379 3407 c-3 -21 -1 -41 3 -43 5 -3 6 -10 3 -15 -4 -5 -2 -9 4 -9
15 0 26 23 13 28 -18 6 -14 20 6 25 15 4 15 5 0 6 -9 0 -18 11 -20 24 -3 15
-5 10 -9 -16z"/>
<path d="M5268 3433 c6 -2 18 -2 25 0 6 3 1 5 -13 5 -14 0 -19 -2 -12 -5z"/>
<path d="M2540 3420 c0 -5 5 -10 10 -10 6 0 10 5 10 10 0 6 -4 10 -10 10 -5 0
-10 -4 -10 -10z"/>
<path d="M3936 3422 c-2 -4 -1 -14 5 -22 7 -12 9 -10 9 8 0 23 -5 28 -14 14z"/>
<path d="M2603 3413 c9 -2 23 -2 30 0 6 3 -1 5 -18 5 -16 0 -22 -2 -12 -5z"/>
<path d="M2683 3413 c9 -2 25 -2 35 0 9 3 1 5 -18 5 -19 0 -27 -2 -17 -5z"/>
<path d="M2787 3399 c6 -21 53 -27 53 -7 0 6 6 4 13 -6 14 -19 47 -13 47 10 0
8 5 14 11 14 6 0 8 -7 5 -15 -7 -18 21 -32 35 -18 5 5 7 17 3 26 -5 14 -21 17
-89 16 -76 -1 -82 -2 -78 -20z"/>
<path d="M3762 3370 c-23 -27 -45 -63 -48 -80 -4 -17 -11 -33 -15 -36 -5 -3
-9 -10 -9 -17 0 -6 7 -2 15 9 12 15 16 16 24 5 11 -17 34 -10 37 13 2 14 0 15
-14 4 -14 -11 -15 -10 -9 5 4 10 7 23 7 29 0 6 9 1 20 -12 12 -13 18 -30 15
-38 -4 -12 -3 -12 9 -3 11 10 13 19 5 38 -8 21 -5 30 21 59 16 19 30 40 30 47
-1 7 -16 -5 -35 -26 -21 -24 -40 -37 -52 -35 -15 3 -12 9 20 41 20 21 37 40
37 42 0 15 -20 -1 -58 -45z"/>
<path d="M5120 3381 c0 -36 2 -39 23 -33 19 5 20 7 4 10 -15 3 -18 11 -15 33
3 16 1 29 -4 29 -4 0 -8 -18 -8 -39z"/>
<path d="M2297 3399 c7 -7 15 -10 18 -7 3 3 -2 9 -12 12 -14 6 -15 5 -6 -5z"/>
<path d="M4310 3400 c0 -5 5 -10 10 -10 6 0 10 5 10 10 0 6 -4 10 -10 10 -5 0
-10 -4 -10 -10z"/>
<path d="M4850 3400 c0 -5 5 -10 11 -10 5 0 7 5 4 10 -3 6 -8 10 -11 10 -2 0
-4 -4 -4 -10z"/>
<path d="M2503 3383 c9 -2 23 -2 30 0 6 3 -1 5 -18 5 -16 0 -22 -2 -12 -5z"/>
<path d="M3980 3365 c0 -18 5 -25 20 -25 15 0 20 7 20 25 0 18 -5 25 -20 25
-15 0 -20 -7 -20 -25z"/>
<path d="M4037 3377 c-3 -8 -1 -20 3 -27 7 -11 14 -11 34 -2 17 7 27 8 32 1
10 -17 37 -5 40 19 3 18 -1 22 -20 22 -13 0 -27 -6 -30 -12 -5 -10 -7 -10 -12
0 -8 16 -41 16 -47 -1z"/>
<path d="M4245 3380 c3 -5 18 -10 32 -10 32 0 28 5 -10 14 -19 4 -26 3 -22 -4z"/>
<path d="M4463 3383 c-16 -6 -17 -39 -3 -48 17 -10 38 14 33 35 -5 21 -9 22
-30 13z"/>
<path d="M4528 3382 c-10 -2 -18 -12 -18 -23 0 -21 8 -23 28 -10 19 12 11 37
-10 33z"/>
<path d="M4572 3368 c2 -13 10 -23 18 -23 8 0 16 10 18 23 3 17 -2 22 -18 22
-16 0 -21 -5 -18 -22z"/>
<path d="M2455 3370 c3 -5 11 -10 16 -10 6 0 7 5 4 10 -3 6 -11 10 -16 10 -6
0 -7 -4 -4 -10z"/>
<path d="M3925 3373 c-30 -7 -40 -21 -12 -16 19 4 26 0 30 -14 3 -12 5 -9 6
10 0 15 0 26 -1 26 -2 -1 -12 -3 -23 -6z"/>
<path d="M4350 3360 c0 -5 5 -10 11 -10 5 0 7 5 4 10 -3 6 -8 10 -11 10 -2 0
-4 -4 -4 -10z"/>
<path d="M2851 3350 c-10 -6 -10 -12 -2 -29 7 -11 16 -21 20 -21 9 0 21 24 21
40 0 12 -25 19 -39 10z"/>
<path d="M3841 3346 c-6 -7 -9 -15 -6 -18 3 -3 -1 -11 -10 -18 -8 -7 -15 -17
-15 -23 0 -5 9 -2 20 8 23 21 26 9 5 -19 -19 -25 -19 -37 0 -30 8 4 15 12 15
20 0 7 10 20 22 28 18 13 19 16 5 16 -19 0 -22 11 -6 27 7 7 6 12 -5 16 -8 3
-19 0 -25 -7z"/>
<path d="M4235 3351 c6 -5 24 -13 40 -17 39 -9 30 0 -15 15 -19 6 -30 7 -25 2z"/>
<path d="M4718 3353 c7 -3 16 -2 19 1 4 3 -2 6 -13 5 -11 0 -14 -3 -6 -6z"/>
<path d="M2780 3330 c0 -24 29 -38 40 -20 12 19 1 40 -21 40 -12 0 -19 -7 -19
-20z"/>
<path d="M2912 3323 c2 -14 10 -29 18 -31 8 -3 12 -1 8 3 -4 4 -3 18 2 31 8
20 7 24 -11 24 -16 0 -20 -5 -17 -27z"/>
<path d="M2528 3323 c7 -3 16 -2 19 1 4 3 -2 6 -13 5 -11 0 -14 -3 -6 -6z"/>
<path d="M2580 3320 c0 -5 5 -10 10 -10 6 0 10 5 10 10 0 6 -4 10 -10 10 -5 0
-10 -4 -10 -10z"/>
<path d="M4053 3323 c-7 -3 -13 -16 -13 -29 0 -28 34 -34 44 -7 8 19 -13 43
-31 36z"/>
<path d="M4199 3319 c-10 -6 -7 -9 14 -9 29 0 35 5 14 13 -8 3 -20 1 -28 -4z"/>
<path d="M2373 3255 c-1 -38 2 -65 8 -65 6 0 8 4 4 9 -3 5 -2 12 2 14 9 6 4
107 -5 107 -4 0 -8 -29 -9 -65z"/>
<path d="M2418 3313 c7 -3 16 -2 19 1 4 3 -2 6 -13 5 -11 0 -14 -3 -6 -6z"/>
<path d="M3977 3313 c-19 -18 3 -56 26 -47 24 9 22 54 -1 54 -10 0 -22 -3 -25
-7z"/>
<path d="M4113 3313 c-17 -6 -16 -40 1 -46 19 -7 26 1 26 30 0 23 -4 26 -27
16z"/>
<path d="M4450 3305 c-15 -18 -6 -45 14 -45 16 0 31 34 21 50 -9 14 -21 12
-35 -5z"/>
<path d="M4517 3313 c-14 -14 -7 -43 11 -43 25 0 31 7 25 31 -5 19 -23 25 -36
12z"/>
<path d="M4588 3313 c-10 -3 -18 -13 -18 -24 0 -14 7 -19 25 -19 18 0 25 5 25
19 0 23 -8 29 -32 24z"/>
<path d="M4853 3309 c-10 -4 14 -7 52 -7 70 0 71 4 3 10 -20 2 -45 1 -55 -3z"/>
<path d="M3910 3300 c-9 -6 -10 -10 -3 -10 6 0 15 5 18 10 8 12 4 12 -15 0z"/>
<path d="M2680 3296 c0 -9 30 -14 35 -6 4 6 -3 10 -14 10 -12 0 -21 -2 -21 -4z"/>
<path d="M3362 3260 c0 -19 2 -27 5 -17 2 9 2 25 0 35 -3 9 -5 1 -5 -18z"/>
<path d="M4240 3279 c0 -5 4 -9 9 -9 5 0 16 -3 25 -6 9 -3 16 -2 16 4 0 5 -11
12 -25 14 -14 3 -25 1 -25 -3z"/>
<path d="M4300 3282 c0 -4 9 -8 19 -8 11 0 17 4 15 8 -3 4 -12 8 -20 8 -8 0
-14 -4 -14 -8z"/>
<path d="M4860 3281 c0 -5 5 -13 10 -16 6 -3 10 -2 10 4 0 5 -4 13 -10 16 -5
3 -10 2 -10 -4z"/>
<path d="M2784 3265 c-4 -9 0 -24 10 -33 15 -15 18 -15 26 -2 6 8 9 22 7 30
-3 21 -36 25 -43 5z"/>
<path d="M2847 3274 c-16 -16 -6 -34 19 -34 19 0 25 5 22 17 -3 19 -29 29 -41
17z"/>
<path d="M2910 3265 c-10 -12 -9 -16 6 -21 11 -4 22 -9 27 -11 4 -2 7 7 7 21
0 29 -20 35 -40 11z"/>
<path d="M4719 3271 c7 -5 10 -14 7 -20 -4 -7 1 -11 13 -11 14 0 19 6 18 20
-1 14 -8 20 -27 20 -18 0 -21 -3 -11 -9z"/>
<path d="M4773 3265 c0 -8 4 -15 7 -15 4 0 13 7 20 15 10 12 9 15 -7 15 -11 0
-20 -7 -20 -15z"/>
<path d="M4928 3273 c7 -3 16 -2 19 1 4 3 -2 6 -13 5 -11 0 -14 -3 -6 -6z"/>
<path d="M4828 3263 c7 -3 16 -2 19 1 4 3 -2 6 -13 5 -11 0 -14 -3 -6 -6z"/>
<path d="M2197 3240 c4 -14 13 -20 32 -19 23 2 24 2 4 6 -13 2 -23 11 -23 19
0 8 -4 14 -9 14 -5 0 -7 -9 -4 -20z"/>
<path d="M3853 3228 c-18 -21 -37 -58 -29 -58 1 0 17 18 35 40 34 42 29 56 -6
18z"/>
<path d="M5300 3235 c0 -8 4 -15 10 -15 5 0 7 7 4 15 -4 8 -8 15 -10 15 -2 0
-4 -7 -4 -15z"/>
<path d="M2595 3230 c-3 -5 -1 -10 4 -10 6 0 11 5 11 10 0 6 -2 10 -4 10 -3 0
-8 -4 -11 -10z"/>
<path d="M3887 3212 c-26 -27 -36 -49 -17 -37 10 6 53 65 48 65 -3 0 -16 -13
-31 -28z"/>
<path d="M2448 3223 c7 -3 16 -2 19 1 4 3 -2 6 -13 5 -11 0 -14 -3 -6 -6z"/>
<path d="M3366 3207 c3 -10 9 -15 12 -12 3 3 0 11 -7 18 -10 9 -11 8 -5 -6z"/>
<path d="M4326 3184 c-8 -20 -8 -24 2 -24 4 0 8 9 9 20 2 24 -3 26 -11 4z"/>
<path d="M4687 3168 c7 -40 13 -49 13 -20 0 11 5 24 10 27 13 8 3 25 -15 25
-11 0 -13 -8 -8 -32z"/>
<path d="M4900 3170 c0 -5 7 -7 15 -4 8 4 15 8 15 10 0 2 -7 4 -15 4 -8 0 -15
-4 -15 -10z"/>
<path d="M2380 3168 c-11 -67 -10 -128 0 -128 7 0 10 7 6 15 -3 8 -2 35 3 60
5 26 5 48 0 51 -5 3 -9 4 -9 2z"/>
<path d="M4863 3155 c0 -8 6 -15 12 -15 6 0 12 7 12 15 0 8 -6 15 -12 15 -6 0
-12 -7 -12 -15z"/>
<path d="M2253 3127 c-1 -12 -4 -35 -5 -51 -4 -36 13 -43 30 -15 17 28 6 38
-14 13 -15 -18 -15 -18 -10 -1 14 45 17 65 9 70 -4 3 -9 -5 -10 -16z"/>
<path d="M2293 3133 c-3 -10 -8 -22 -11 -27 -3 -5 0 -6 5 -3 11 7 25 47 17 47
-3 0 -7 -8 -11 -17z"/>
<path d="M4828 3143 c7 -3 16 -2 19 1 4 3 -2 6 -13 5 -11 0 -14 -3 -6 -6z"/>
<path d="M3412 3110 c0 -19 2 -27 5 -17 2 9 2 25 0 35 -3 9 -5 1 -5 -18z"/>
<path d="M3372 3105 c0 -16 2 -22 5 -12 2 9 2 23 0 30 -3 6 -5 -1 -5 -18z"/>
<path d="M2600 3101 c-5 -11 -9 -30 -9 -43 1 -19 3 -17 8 7 5 25 11 30 34 30
30 -1 36 9 11 19 -25 10 -33 7 -44 -13z"/>
<path d="M2430 3100 c-24 -8 -23 -8 8 -9 20 -1 31 3 27 9 -3 6 -7 10 -8 9 -1
-1 -13 -5 -27 -9z"/>
<path d="M3950 3085 c-1 -5 -1 -26 0 -45 2 -38 -17 -32 -23 7 -2 13 -7 26 -12
30 -4 5 -5 -7 -1 -26 3 -18 6 -37 6 -42 0 -14 40 -11 45 4 2 6 0 28 -4 47 -5
19 -10 31 -11 25z"/>
<path d="M4719 3067 c14 -15 27 -27 29 -27 3 0 2 3 -1 7 -4 3 -2 12 4 20 9 10
8 13 -4 13 -8 0 -24 3 -34 7 -14 5 -13 1 6 -20z"/>
<path d="M2620 3046 c0 -31 3 -34 33 -37 17 -2 70 -2 117 1 l85 5 -6 30 -7 30
-1 -27 c-1 -35 -21 -37 -21 -3 0 14 -4 25 -9 25 -4 0 -6 -11 -3 -25 2 -14 0
-25 -6 -25 -13 0 -23 26 -16 45 4 8 1 15 -4 15 -6 0 -12 -15 -14 -32 l-4 -33
-11 35 -11 35 -1 -32 c-1 -18 -5 -33 -10 -33 -13 0 -21 27 -15 45 4 8 1 15 -4
15 -6 0 -12 -15 -15 -32 l-3 -33 -9 35 -9 35 -7 -35 -6 -35 -8 33 c-10 43 -35
42 -35 -2z"/>
<path d="M3982 3040 c1 -22 5 -40 10 -40 5 0 7 18 6 40 -4 52 -18 52 -16 0z"/>
<path d="M4021 3043 l-1 -43 113 0 c61 0 122 -3 135 -6 13 -4 22 -2 22 5 0 6
-9 11 -20 11 -16 0 -20 7 -20 30 0 17 -4 30 -8 30 -5 0 -6 -14 -4 -31 4 -24 1
-30 -9 -27 -8 3 -13 18 -13 37 1 17 -2 31 -7 31 -5 0 -9 -16 -9 -36 0 -24 -4
-34 -12 -31 -8 2 -12 18 -11 38 l2 34 -11 -37 c-5 -21 -14 -38 -18 -38 -5 0
-11 17 -13 38 l-4 37 -1 -37 c-2 -48 -22 -50 -22 -3 0 19 -4 35 -9 35 -5 0 -9
-14 -8 -32 1 -17 -3 -33 -10 -35 -9 -3 -13 7 -13 31 0 20 -4 36 -9 36 -6 0 -7
-16 -4 -35 8 -47 -11 -45 -24 3 l-10 37 -2 -42z"/>
<path d="M4314 3023 c3 -32 7 -70 8 -85 2 -14 5 -28 8 -31 10 -9 430 -15 430
-6 0 8 -168 15 -209 9 -24 -3 -62 10 -56 20 8 13 -1 13 -26 0 -21 -12 -26 -1
-7 18 8 8 8 12 1 12 -6 0 -16 -7 -23 -15 -7 -9 -15 -13 -18 -10 -3 3 3 15 14
27 11 13 4 10 -15 -7 -19 -16 -30 -23 -26 -15 6 12 5 13 -6 3 -39 -38 -31 3
14 62 26 34 27 36 6 18 -33 -30 -45 -29 -25 2 17 26 21 39 8 31 -4 -2 -14 -1
-22 4 -9 5 -20 4 -29 -3 -12 -10 -14 -9 -8 6 4 11 1 17 -9 17 -13 0 -15 -10
-10 -57z"/>
<path d="M2876 3038 c1 -32 2 -33 49 -36 41 -3 47 -1 41 13 -3 9 -6 25 -6 36
0 10 -5 19 -11 19 -7 0 -8 -11 -4 -30 4 -19 3 -30 -4 -30 -11 0 -15 12 -12 43
1 9 -3 17 -8 17 -6 0 -11 -13 -11 -30 0 -16 -4 -30 -10 -30 -5 0 -10 14 -10
30 0 17 -3 30 -7 30 -5 0 -8 -15 -7 -32z"/>
<path d="M4270 3048 c0 -16 5 -28 10 -28 13 0 13 20 0 40 -8 12 -10 9 -10 -12z"/>
<path d="M3110 3050 c0 -5 5 -10 10 -10 6 0 10 5 10 10 0 6 -4 10 -10 10 -5 0
-10 -4 -10 -10z"/>
<path d="M2289 3034 c-19 -23 -22 -54 -5 -54 19 0 31 19 31 48 1 26 -7 28 -26
6z"/>
<path d="M2360 3018 c0 -10 -5 -18 -10 -18 -6 0 -3 -11 6 -25 9 -14 14 -28 10
-32 -3 -3 -34 -6 -68 -5 -35 0 -55 -2 -45 -5 9 -2 17 -8 17 -12 0 -4 23 -7 50
-7 28 0 50 4 50 9 0 14 166 3 183 -12 20 -16 23 -7 25 54 l1 50 -10 -41 -10
-42 -67 5 c-90 6 -115 12 -109 26 2 7 -2 26 -9 42 -8 18 -13 23 -14 13z"/>
<path d="M2218 2983 c7 -3 16 -2 19 1 4 3 -2 6 -13 5 -11 0 -14 -3 -6 -6z"/>
<path d="M2600 2951 c0 -29 2 -32 23 -26 12 4 27 13 33 21 15 18 25 18 18 -1
-8 -20 6 -19 22 3 11 14 13 14 9 1 -5 -14 3 -16 60 -13 50 3 64 1 59 -9 -6 -9
-4 -9 7 -1 9 8 30 9 62 5 38 -6 47 -5 47 7 0 8 -6 12 -15 9 -8 -4 -17 -2 -20
3 -3 5 5 11 17 13 13 2 -7 5 -43 6 -36 0 -114 4 -172 8 l-107 6 0 -32z m177 3
c-3 -3 -12 -4 -19 -1 -8 3 -5 6 6 6 11 1 17 -2 13 -5z m66 -1 c-7 -2 -19 -2
-25 0 -7 3 -2 5 12 5 14 0 19 -2 13 -5z"/>
<path d="M3920 2945 c0 -14 6 -28 13 -30 6 -3 71 -7 142 -9 72 -3 146 -8 166
-11 43 -8 64 11 24 21 -14 3 -25 10 -25 15 0 9 -53 4 -71 -7 -8 -5 -9 -3 -4 6
6 10 4 12 -11 6 -13 -5 -16 -4 -8 4 6 5 36 11 67 13 31 1 57 5 57 10 0 4 -79
7 -175 7 l-175 0 0 -25z m190 -10 c-16 -19 -27 -19 -27 0 0 8 4 12 8 9 4 -2
11 1 14 7 4 5 9 8 12 5 3 -3 0 -12 -7 -21z m-56 6 c-9 -9 -34 -9 -34 -1 0 5 9
8 20 7 10 -1 17 -3 14 -6z"/>
<path d="M4280 2941 c0 -6 5 -13 10 -16 6 -3 10 1 10 9 0 9 -4 16 -10 16 -5 0
-10 -4 -10 -9z"/>
<path d="M5115 2940 c-3 -5 3 -10 14 -10 12 0 21 5 21 10 0 6 -6 10 -14 10 -8
0 -18 -4 -21 -10z"/>
<path d="M2125 2930 c-4 -6 10 -9 34 -7 54 4 65 17 13 17 -22 0 -44 -4 -47
-10z"/>
<path d="M5258 2933 c7 -3 16 -2 19 1 4 3 -2 6 -13 5 -11 0 -14 -3 -6 -6z"/>
<path d="M5145 2921 c-3 -2 -56 -4 -117 -3 -62 1 -140 -3 -173 -8 -51 -7 -46
-8 39 -4 55 3 139 2 187 -2 75 -5 87 -9 81 -23 -5 -14 -3 -14 21 2 30 20 87
23 105 5 9 -9 12 -9 12 0 0 7 13 12 30 12 17 0 30 4 30 9 0 6 -19 9 -43 7 -24
-1 -71 1 -105 4 -35 3 -65 4 -67 1z"/>
<path d="M2398 2913 c6 -2 18 -2 25 0 6 3 1 5 -13 5 -14 0 -19 -2 -12 -5z"/>
<path d="M2280 2824 c0 -20 18 -34 33 -28 9 3 17 2 17 -3 0 -5 44 -10 98 -11
53 -1 106 -2 117 -4 37 -3 270 5 243 9 -16 2 -28 9 -28 14 0 15 57 10 63 -5 5
-12 62 -14 349 -14 189 1 449 -5 578 -13 203 -12 323 -14 625 -10 43 1 56 4
45 11 -12 8 -11 10 8 10 12 0 22 -4 22 -9 0 -5 38 -8 85 -8 47 1 85 5 85 10 0
4 10 7 22 7 12 0 18 3 15 6 -8 8 -86 11 -90 3 -1 -3 -70 -3 -154 0 -84 3 -163
3 -175 -1 -17 -4 -11 -6 20 -7 24 -1 42 -6 42 -12 0 -7 -9 -9 -22 -5 -13 3
-40 6 -61 6 -24 0 -36 4 -32 10 4 7 -36 10 -122 9 -70 -1 -138 1 -150 5 -13 4
-23 5 -23 2 0 -3 15 -10 33 -15 l32 -9 -42 -1 c-41 -1 -65 12 -41 22 7 3 3 6
-9 6 -13 1 -23 -3 -23 -9 0 -5 -20 -10 -45 -10 -25 0 -45 5 -45 10 0 6 12 8
28 5 19 -5 23 -4 12 3 -13 9 -450 23 -450 15 0 -1 15 -7 33 -12 l32 -9 -31 -1
c-17 -1 -37 5 -43 13 -11 13 -75 14 -429 10 -512 -6 -594 -5 -609 8 -7 6 -13
7 -13 2z m460 -24 c0 -5 -9 -10 -21 -10 -11 0 -17 5 -14 10 3 6 13 10 21 10 8
0 14 -4 14 -10z m373 3 c-7 -2 -21 -2 -30 0 -10 3 -4 5 12 5 17 0 24 -2 18 -5z
m102 -3 c-28 -12 -47 -12 -40 0 3 6 18 10 33 9 24 0 25 -1 7 -9z m95 0 c0 -11
-14 -11 -50 0 -22 7 -21 8 13 9 20 1 37 -3 37 -9z m-733 -6 c-3 -3 -12 -4 -19
-1 -8 3 -5 6 6 6 11 1 17 -2 13 -5z m56 -1 c-7 -2 -19 -2 -25 0 -7 3 -2 5 12
5 14 0 19 -2 13 -5z m320 0 c-7 -2 -21 -2 -30 0 -10 3 -4 5 12 5 17 0 24 -2
18 -5z m590 0 c-7 -2 -19 -2 -25 0 -7 3 -2 5 12 5 14 0 19 -2 13 -5z m177 -3
c0 -5 -11 -10 -25 -10 -14 0 -25 5 -25 10 0 6 11 10 25 10 14 0 25 -4 25 -10z
m396 -23 c4 -4 -22 -7 -57 -7 -46 0 -60 3 -49 10 16 11 95 8 106 -3z"/>
<path d="M2185 2800 c3 -5 8 -10 11 -10 2 0 4 5 4 10 0 6 -5 10 -11 10 -5 0
-7 -4 -4 -10z"/>
<path d="M2125 2790 c3 -5 14 -10 23 -10 15 0 15 2 2 10 -20 13 -33 13 -25 0z"/>
<path d="M2238 2783 c6 -2 18 -2 25 0 6 3 1 5 -13 5 -14 0 -19 -2 -12 -5z"/>
<path d="M4707 2773 c18 -2 50 -2 70 0 21 2 7 4 -32 4 -38 0 -55 -2 -38 -4z"/>
<path d="M1823 2386 c-134 -42 -213 -152 -213 -297 0 -122 52 -204 159 -252
35 -15 59 -18 115 -15 120 8 212 71 261 179 24 55 27 71 23 138 -5 88 -28 141
-85 196 -60 59 -167 80 -260 51z m228 -40 c27 -18 48 -43 61 -74 19 -42 20
-53 10 -101 -21 -98 -147 -277 -224 -317 -101 -52 -248 39 -248 153 1 101 132
301 235 357 43 23 114 16 166 -18z"/>
<path d="M5575 2225 c-77 -27 -112 -95 -103 -195 13 -129 159 -198 267 -127
68 45 101 123 70 167 -8 11 -9 7 -6 -20 9 -71 -44 -142 -107 -142 -40 0 -81
26 -119 76 l-27 34 96 77 96 77 -23 24 c-12 13 -39 28 -58 34 -43 12 -37 12
-86 -5z m32 -28 c12 -7 31 -24 42 -38 l21 -27 -53 -44 c-75 -64 -74 -64 -97
-19 -27 54 -25 77 9 112 32 32 45 34 78 16z"/>
<path d="M4895 2130 c-17 -18 -17 -21 -1 -45 9 -14 23 -25 31 -25 17 0 45 27
45 45 0 17 -27 45 -44 45 -7 0 -21 -9 -31 -20z"/>
<path d="M2729 2057 c-34 -17 -50 -35 -71 -77 -16 -29 -28 -64 -28 -77 0 -20
-5 -23 -37 -24 l-38 -1 32 -9 c37 -11 38 8 -7 -194 l-27 -120 -34 3 c-20 2
-30 -1 -24 -6 12 -11 184 -47 191 -40 3 3 -11 9 -31 12 -30 6 -34 10 -30 29 3
12 16 74 30 137 14 63 27 125 30 137 4 19 9 21 37 12 18 -5 42 -9 53 -8 23 1
16 4 -41 19 l-42 10 15 67 c24 118 72 165 129 128 24 -16 25 -18 10 -40 -23
-35 -20 -54 9 -61 71 -18 71 77 0 111 -45 21 -74 19 -126 -8z"/>
<path d="M5313 2060 c-22 -13 -36 -32 -44 -61 -13 -41 -13 -41 -22 -15 -11 32
-29 32 -87 0 -41 -22 -42 -24 -14 -19 l31 6 63 -142 c35 -79 59 -144 53 -146
-15 -5 -50 -35 -37 -31 36 10 174 74 174 81 0 4 -9 3 -19 -3 -38 -20 -48 -11
-89 88 -48 110 -55 174 -24 213 23 28 52 20 52 -14 0 -34 23 -51 49 -37 21 11
28 45 13 66 -8 12 -46 34 -59 34 -4 0 -22 -9 -40 -20z"/>
<path d="M4421 2039 c-52 -10 -70 -24 -24 -17 37 5 26 44 96 -319 l43 -222
-29 -7 c-15 -3 -26 -8 -24 -11 7 -6 177 28 177 37 0 3 -13 5 -29 2 l-29 -4
-16 89 c-9 48 -16 106 -16 128 0 52 32 102 76 121 32 13 38 13 59 0 27 -18 27
-18 55 -161 12 -60 23 -117 26 -127 4 -12 -4 -18 -26 -23 -17 -4 -29 -9 -27
-11 3 -3 47 3 98 13 72 14 86 19 58 21 l-36 3 -23 127 c-19 108 -27 130 -51
154 -52 53 -159 30 -202 -43 l-23 -39 -29 150 c-31 165 -23 155 -104 139z"/>
<path d="M2175 2000 c3 -5 12 -10 20 -10 8 0 19 -18 26 -42 6 -24 20 -70 30
-103 l19 -60 -23 -17 c-77 -60 -129 -90 -147 -85 -44 11 -17 -10 32 -26 55
-17 81 -15 33 3 l-28 11 61 44 c34 25 65 45 69 45 9 0 43 -109 43 -135 0 -13
-4 -14 -21 -5 -11 7 -23 9 -26 6 -7 -6 -6 -6 95 -40 39 -14 72 -21 72 -17 0 5
-8 11 -18 13 -14 4 -26 31 -47 104 -15 54 -29 104 -32 109 -2 6 26 32 62 59
50 36 70 46 87 41 44 -14 4 12 -44 28 -49 16 -69 8 -22 -9 l26 -9 -51 -37
c-28 -21 -54 -38 -59 -38 -7 0 -42 104 -42 125 0 2 12 0 26 -6 15 -5 29 -7 32
-5 6 6 5 6 -97 41 -85 29 -84 28 -76 15z"/>
<path d="M3857 1983 l32 -4 3 -135 c2 -74 -1 -135 -5 -137 -4 -1 -3 -25 3 -52
6 -28 10 -79 9 -115 -1 -36 -2 -80 -1 -97 l2 -33 65 0 c37 0 65 4 65 10 0 6
-13 10 -29 10 l-29 0 -7 280 -8 280 -66 -2 c-36 0 -52 -3 -34 -5z"/>
<path d="M4938 1914 c-55 -17 -64 -28 -15 -19 l32 6 46 -151 47 -152 -30 -10
c-16 -6 -27 -12 -25 -15 6 -5 177 47 177 54 0 3 -13 2 -28 -2 -31 -6 -28 -14
-97 218 -29 96 -28 95 -107 71z"/>
<path d="M2931 1799 c-144 -58 -162 -232 -33 -323 128 -90 307 32 278 189 -8
40 -64 108 -107 131 -31 16 -102 18 -138 3z m141 -30 c31 -30 31 -30 26 -122
-4 -67 -11 -103 -26 -133 -24 -47 -37 -54 -93 -54 -51 0 -88 34 -90 82 -5 116
12 190 51 230 40 40 91 39 132 -3z"/>
<path d="M4168 1774 c-60 -32 -73 -117 -25 -162 12 -11 51 -28 87 -37 80 -21
90 -29 90 -71 0 -43 -23 -64 -68 -64 -50 1 -80 19 -108 66 -22 35 -24 37 -24
14 0 -14 3 -42 6 -63 5 -28 10 -35 19 -27 9 7 27 7 57 1 107 -24 202 56 169
142 -13 35 -43 52 -121 72 -35 9 -72 21 -82 26 -46 25 -23 93 36 104 42 8 71
-6 96 -48 l20 -32 0 45 0 45 -63 2 c-40 2 -72 -3 -89 -13z"/>
<path d="M3288 1763 l32 -4 -1 -72 c-1 -40 -4 -112 -8 -162 l-6 -90 -27 3
c-16 2 -28 -1 -28 -7 0 -5 40 -11 95 -13 52 -2 95 0 95 5 0 4 -14 7 -31 7
l-32 0 6 108 c3 60 12 124 20 143 18 43 50 72 74 67 14 -3 17 -12 15 -45 -2
-33 2 -43 16 -48 47 -14 77 35 48 79 -31 48 -111 39 -150 -16 -16 -22 -16 -22
-16 9 0 35 -18 44 -90 41 -36 -1 -39 -2 -12 -5z"/>
<path d="M3748 1760 c-47 -14 -90 -51 -109 -94 -54 -120 19 -253 144 -264 45
-3 56 -1 80 22 15 14 27 29 27 35 0 5 -13 -4 -29 -20 -21 -20 -39 -29 -63 -29
-72 0 -98 48 -98 181 0 85 13 135 40 149 31 17 86 11 114 -11 14 -11 26 -16
26 -10 0 30 -85 56 -132 41z"/>
</g>
</svg>
